<?xml version="1.0" encoding="UTF-8" standalone="no"?>
<svg
   xmlns:dc="http://purl.org/dc/elements/1.1/"
   xmlns:cc="http://creativecommons.org/ns#"
   xmlns:rdf="http://www.w3.org/1999/02/22-rdf-syntax-ns#"
   xmlns:svg="http://www.w3.org/2000/svg"
   xmlns="http://www.w3.org/2000/svg"
   xmlns:sodipodi="http://sodipodi.sourceforge.net/DTD/sodipodi-0.dtd"
   xmlns:inkscape="http://www.inkscape.org/namespaces/inkscape"
   width="548.05792"
   height="749.71899"
   viewBox="0 0 548.05792 749.71899"
   version="1.2"
   id="svg2509"
   sodipodi:docname="Illustrations - page 3.svg"
   inkscape:version="1.0.2 (e86c8708, 2021-01-15)"><metadata
   id="metadata2515">
  <rdf:RDF>
    <cc:Work
       rdf:about="">
      <dc:format>image/svg+xml</dc:format>
      <dc:type
         rdf:resource="http://purl.org/dc/dcmitype/StillImage" />
    </cc:Work>
  </rdf:RDF>
</metadata>
<defs
   id="defs2513" />
<sodipodi:namedview
   pagecolor="#ffffff"
   bordercolor="#666666"
   borderopacity="1"
   objecttolerance="10"
   gridtolerance="10"
   guidetolerance="10"
   inkscape:pageopacity="0"
   inkscape:pageshadow="2"
   inkscape:window-width="1920"
   inkscape:window-height="1155"
   id="namedview2511"
   showgrid="false"
   inkscape:zoom="0.39262821"
   inkscape:cx="329.19859"
   inkscape:cy="786.91402"
   inkscape:window-x="0"
   inkscape:window-y="23"
   inkscape:window-maximized="0"
   inkscape:current-layer="svg2509" />
<title
   id="title2461">Illustrations</title>
\n<g
   id="g2467"
   transform="translate(-372.80141,-149.08598)">
  <path
     fill="none"
     stroke="#000000"
     stroke-width="4"
     stroke-linecap="butt"
     stroke-linejoin="round"
     d="m 688.62,387.935 0.42,-0.085 -0.441,-0.092 0.306,-0.125 -0.251,0.026 0.235,0.194 -0.343,-0.336 0.319,0.197 -0.05,-0.494 -0.229,0.348 -0.103,-0.883 -0.277,0.077 -0.169,-0.616 -0.11,0.191 -0.57,-1.594 -0.959,-0.561 -1.337,-1.864 -0.682,-0.222 -0.616,-0.834 -0.317,0.103 -0.052,-0.705 -0.342,0.559 -1.225,-0.618 -0.181,0.387 -0.865,-1.313 -0.374,0.326 -1.564,-0.597 -2.072,-1.255 -1.379,-0.379 -0.561,-0.841 -0.983,0.328 -0.565,-0.452 -0.735,0.044 -1.078,-0.807 -3.037,-0.67 -0.998,0.196 -0.767,-0.242 -0.223,-0.464 -0.759,0.555 -1.666,0.04 -0.968,-0.361 -0.564,0.401 -2.794,-0.294 -0.605,0.479 -0.674,-0.464 h -0.933 l -2.464,0.659 -0.406,-0.275 -4.261,0.692 -0.524,-0.246 -2.387,0.978 -0.236,-0.251 -0.766,0.557 -0.47,-0.235 -0.263,0.571 -3.255,1.537 -0.641,-0.022 -0.51,0.589 -0.768,0.27 -0.715,0.913 -0.492,0.118 -0.933,1.327 -1,0.651 -0.071,0.37 -0.585,0.155 -0.04,0.498 -0.671,0.146 -0.54,1.133 -1.156,0.939 -0.349,0.718 -0.381,0.33 -0.067,-0.22 -0.678,1.617 -0.484,0.152 -0.145,0.763 -0.426,0.075 -0.399,1.186 -2.401,2.514 -0.069,0.675 -0.402,0.193 -1.439,3.45 -0.246,0.042 -0.465,1.724 -0.792,0.923 -0.118,0.879 -0.54,0.656 -0.351,2.263 -0.613,1.51 -0.252,2.543 -0.772,2.37 0.026,0.834 -0.076,-0.234 -0.119,0.175 -0.606,9.006 -0.012,1.677 0.096,-0.378 0.248,1.206 -0.535,1.274 0.129,7.729 0.314,0.285 -0.031,0.978 0.731,2.6 0.607,4.707 0.227,0.055 1.219,4.595 0.344,0.32 0.99,4.327 0.584,1.084 0.326,3.075 0.273,-0.06 0.141,0.55 0.115,-0.183 0.085,1.609 0.872,2.8 0.103,1.662 0.517,0.528 0.005,1.34 0.126,0.288 0.133,-0.305 2.007,11.059 0.125,-0.425 0.211,2.64 0.507,1.471 0.088,2.922 0.347,0.605 0.138,2.921 0.483,1.682 0.857,9.292 0.682,1.94 0.185,4.984 0.443,1.62 0.286,4.566 0.657,4.196 0.115,4.296 0.269,-0.057 -0.63,11.338 0.027,10.564 -0.495,4.606 -0.022,5.979 -0.448,2.939 0.062,1.792 -0.435,1.273 0.137,1.57 -0.787,3.58 -0.409,5.221 -1.019,3.501 0.097,0.981 -0.978,5.08 0.113,1.275 -0.813,3.03 0.171,0.446 -0.575,2.101 -0.352,0.357 -1.872,12.435 -0.823,2.904 -0.167,1.838 -0.512,0.821 0.055,1.048 -0.941,3.605 0.077,1.439 -0.282,0.163 -0.513,2.939 -0.273,3.064 -0.099,0.27 -0.073,-0.347 -0.129,0.207 -1.778,9.519 -0.693,0.993 0.103,0.814 -0.675,1.509 -0.449,3.115 0.232,-0.081 -0.38,0.799 -0.733,5.748 -0.168,-0.208 -0.508,2.042 -0.661,6.094 -0.584,14.849 0.884,21.004 1.572,12.691 1.564,5.781 0.048,1.384 0.33,0.11 0.721,5.894 0.279,-0.589 0.704,3.407 0.122,-0.386 0.192,0.369 0.089,-0.421 0.119,0.322 0.953,4.646 0.111,-0.517 0.363,0.64 1.079,3.158 0.997,6.304 0.136,-0.233 0.037,0.45 0.107,-0.225 0.222,0.25 0.035,1.503 0.311,0.061 0.246,1.821 0.757,1.712 0.329,-0.058 0.11,1.117 -0.025,-1.11"
     id="path2465" />
</g>
<g
   id="g2471"
   transform="translate(-372.80141,-149.08598)">
  <path
     fill="none"
     stroke="#000000"
     stroke-width="4"
     stroke-linecap="butt"
     stroke-linejoin="round"
     d="m 632.806,389.162 -0.42,-0.084 0.442,-0.093 -0.307,-0.125 0.252,0.026 -0.236,0.194 0.344,-0.336 -0.32,0.197 0.05,-0.494 0.23,0.348 0.103,-0.883 0.276,0.077 0.169,-0.616 0.111,0.191 0.569,-1.594 0.96,-0.561 1.336,-1.864 0.683,-0.222 0.615,-0.834 0.318,0.103 0.052,-0.705 0.342,0.559 1.225,-0.618 0.181,0.387 0.864,-1.312 0.374,0.325 1.565,-0.597 2.072,-1.255 1.378,-0.379 0.562,-0.841 0.982,0.328 0.566,-0.452 0.735,0.044 1.077,-0.807 3.038,-0.67 0.998,0.196 0.767,-0.242 0.222,-0.464 0.76,0.555 1.665,0.04 0.968,-0.361 0.564,0.401 2.794,-0.294 0.605,0.479 0.675,-0.464 h 0.932 l 2.464,0.659 0.407,-0.275 4.26,0.692 0.525,-0.246 2.386,0.979 0.237,-0.252 0.766,0.557 0.469,-0.234 0.264,0.571 3.254,1.537 0.641,-0.023 0.51,0.589 0.769,0.27 0.714,0.913 0.492,0.118 0.933,1.327 1.001,0.651 0.071,0.371 0.584,0.154 0.04,0.498 0.672,0.146 0.54,1.133 1.155,0.94 0.349,0.717 0.381,0.33 0.067,-0.22 0.679,1.617 0.483,0.152 0.145,0.763 0.427,0.075 0.398,1.186 2.402,2.514 0.069,0.675 0.402,0.193 1.438,3.45 0.246,0.042 0.466,1.724 0.792,0.923 0.117,0.879 0.541,0.656 0.35,2.263 0.614,1.51 0.251,2.543 0.773,2.37 -0.026,0.834 0.075,-0.234 0.119,0.175 0.606,9.006 0.013,1.677 -0.097,-0.378 -0.247,1.206 0.535,1.275 -0.129,7.728 -0.315,0.286 0.031,0.977 -0.731,2.6 -0.607,4.707 -0.227,0.055 -1.219,4.595 -0.344,0.321 -0.99,4.327 -0.584,1.083 -0.325,3.075 -0.273,-0.06 -0.142,0.55 -0.114,-0.182 -0.086,1.608 -0.871,2.801 -0.104,1.661 -0.517,0.528 -0.005,1.34 -0.125,0.288 -0.133,-0.304 -2.008,11.058 -0.125,-0.425 -0.21,2.64 -0.508,1.472 -0.088,2.921 -0.346,0.605 -0.139,2.921 -0.482,1.682 -0.858,9.293 -0.681,1.939 -0.185,4.985 -0.444,1.62 -0.285,4.565 -0.658,4.196 -0.115,4.297 -0.268,-0.058 0.63,11.338 -0.028,10.564 0.496,4.607 0.021,5.978 0.448,2.94 -0.062,1.791 0.436,1.273 -0.137,1.571 0.787,3.579 0.409,5.221 1.019,3.502 -0.098,0.98 0.979,5.08 -0.113,1.275 0.813,3.03 -0.172,0.446 0.576,2.101 0.351,0.357 1.872,12.435 0.824,2.905 0.167,1.837 0.511,0.822 -0.054,1.047 0.941,3.605 -0.078,1.439 0.283,0.163 0.512,2.939 0.274,3.064 0.099,0.271 0.073,-0.348 0.128,0.207 1.779,9.519 0.693,0.993 -0.103,0.814 0.674,1.509 0.45,3.116 -0.232,-0.082 0.379,0.799 0.733,5.748 0.169,-0.208 0.507,2.042 0.662,6.094 0.583,14.85 -0.884,21.003 -1.572,12.692 -1.563,5.78 -0.049,1.385 -0.329,0.109 -0.721,5.894 -0.279,-0.589 -0.705,3.407 -0.121,-0.386 -0.193,0.369 -0.089,-0.42 -0.119,0.321 -0.953,4.646 -0.11,-0.516 -0.364,0.639 -1.078,3.158 -0.998,6.304 -0.136,-0.233 -0.037,0.45 -0.107,-0.225 -0.222,0.25 -0.034,1.503 -0.312,0.062 -0.245,1.82 -0.757,1.712 -0.33,-0.058 -0.11,1.117 0.026,-1.11"
     id="path2469" />
</g>
<g
   id="g2475"
   transform="translate(-372.80141,-149.08598)">
  <path
     fill="none"
     stroke="#000000"
     stroke-width="4"
     stroke-linecap="butt"
     stroke-linejoin="round"
     d="m 638.378,730.961 0.324,-0.209 -0.466,0.032 0.458,-0.004 -0.222,-0.195 0.335,-0.418 0.174,0.172 0.37,-0.594 0.323,0.176 -0.076,-0.389 0.082,0.449 0.265,-0.424 0.174,0.303 0.114,-0.221 0.036,0.481 0.132,-0.824 0.11,0.52 0.57,-0.632 0.062,0.489 1.361,-0.255 0.22,0.204 0.565,-0.811 0.055,0.301 0.446,0.09 1.899,-1.186 0.163,0.249 0.453,-0.271 0.21,-0.46 0.256,0.747 0.587,-0.823 0.174,0.588 0.327,-0.406 2.557,-0.093 0.195,-0.499 0.147,0.501 1.079,-0.178 0.297,0.339 0.056,-0.611 0.169,0.134 0.167,-0.383 0.334,0.529 0.3,-0.864 0.064,1.101 0.738,-0.503 -0.037,-0.373 0.23,0.663 1.047,-0.125 0.078,0.347 0.158,-0.313 0.237,0.284 0.456,-0.278 0.102,-0.575 0.079,0.765 0.717,0.113 0.454,-0.276 0.723,0.256 0.362,-0.226 0.202,0.333 0.294,-0.548 0.717,0.992 0.401,-0.353 0.402,0.327 0.104,-0.332 1.219,0.01 0.35,0.328 0.789,-0.045 0.295,0.55 0.045,-0.449 0.486,-0.021 0.136,-0.366 0.157,0.867 0.136,-0.318 0.602,-0.085 0.78,0.445 0.399,-0.402 0.022,0.641 0.41,-0.189 0.175,-0.591 0.065,0.742 0.653,-0.215 0.236,0.359 0.293,-0.361 0.794,-0.066 0.272,-0.525 0.431,0.344 1.263,-0.497 0.28,0.708 0.821,-0.905 0.245,0.562 0.544,-0.407 0.48,0.62 0.43,-0.621 0.188,0.811 0.232,-0.67 0.666,0.488 0.101,-0.359 1.447,0.131 0.092,-0.319 0.193,0.563 0.598,0.006 0.201,0.604 0.44,-1.123 0.166,0.8 0.368,-0.426 -0.035,0.339 0.429,0.08 0.443,-0.105 0.096,-0.434 0.135,0.623 0.247,-0.271 0.706,0.183 0.285,-0.351 0.609,0.821 0.648,-0.592 0.275,0.346 0.13,-0.572 0.477,0.788 0.048,-0.244 0.72,0.156 0.077,-0.514 0.213,0.582 0.486,-0.028 0.176,-0.827 0.114,0.668 0.525,0.531 0.292,-0.672 0.03,0.373 1.291,-0.336 0.246,0.365 0.666,-0.197 0.213,0.33 0.782,-0.758 -0.26,0.599 1.045,-0.034 0.091,-0.567 0.053,0.655 0.326,-0.764 0.206,1.541 0.028,-1.052 0.025,0.563 0.097,-0.586 0.322,0.523 0.589,-0.372 0.136,-0.52 0.022,0.731 0.426,0.044 0.046,0.466 0.18,-1.127 0.278,0.937 0.122,-0.611 0.322,0.224 0.474,-0.515 -0.509,-0.192"
     id="path2473" />
</g>
<g
   id="g2479"
   transform="translate(-372.80141,-149.08598)">
  <path
     fill="none"
     stroke="#000000"
     stroke-width="4"
     stroke-linecap="butt"
     stroke-linejoin="round"
     d="m 685.76,731.765 -0.301,-0.723 0.147,0.603 0.285,0.026 -0.098,-0.507 -0.153,0.592 0.309,-0.529 0.109,0.938 -0.233,-0.507 0.294,-0.298 0.146,1.178 -0.257,0.057 -0.39,3.384 0.304,4.954 -0.406,9.658 0.259,0.308 0.155,10.362 0.291,0.689 0.158,7.851 0.458,4.577 -0.226,0.439 0.2,4.456 -0.617,10.017 -0.252,0.308 0.028,-0.316 -0.263,2.033 -0.099,3.11 -0.828,3.391 -0.196,-0.051 0.326,0.258"
     id="path2477" />
</g>
<g
   id="g2483"
   transform="translate(-372.80141,-149.08598)">
  <path
     fill="none"
     stroke="#000000"
     stroke-width="4"
     stroke-linecap="butt"
     stroke-linejoin="round"
     d="m 641.94,729.265 -0.036,0.23 -0.207,-0.241 0.251,0.278 -0.11,-0.565 -0.256,0.348 0.282,-0.469 0.033,0.899 0.036,-0.531 -0.109,-0.377 -0.194,0.498 0.239,0.103 -0.699,6.421 -0.212,13.328 -0.248,1.014 0.473,5.401 -0.156,3.328 0.312,0.912 -0.245,1.426 0.32,10 0.667,3.186 -0.241,1.363 0.263,3.332 -0.189,1.255 0.577,15.851 -0.153,8.673 0.013,0.912 0.192,-0.062 -0.25,0.323 0.353,0.434 -0.025,2.232 0.097,-0.383 0.432,0.84 0.11,1.063 0.259,-0.117 0.19,0.803 0.16,-0.264 -0.071,0.479 0.16,-0.147 -0.056,0.318 0.434,0.255 0.269,0.986 -0.011,-0.458 0.305,0.049 1.338,2.1 0.444,1.333 0.499,0.162 0.108,0.404 0.395,-0.571 0.256,0.41 0.337,-0.273 0.994,0.395 0.532,-0.151 0.057,0.344 0.511,-0.134 0.365,0.335 0.43,-0.271 0.267,0.619 0.712,-0.403 1.061,-0.119 1.058,0.364 0.182,-0.34 1.02,0.12 0.357,-0.236 0.899,0.333 0.535,-0.263 1.465,0.75 0.328,-0.266 0.685,0.329 0.725,-0.699 0.138,0.401 0.468,0.146 2.862,-0.073 1.211,0.569 0.055,0.449 0.402,-0.428 1.149,0.438 0.375,-0.132 0.31,0.545 0.43,-0.709 0.195,0.258 0.863,-0.392 1.149,0.128 0.156,0.399 0.4,-0.393 0.465,0.693 0.313,-1.13 -0.059,0.488 0.362,0.2 0.648,-0.201 0.315,0.246 0.416,-0.532 0.299,0.448 -0.018,-0.284 0.626,-0.165 0.444,0.051 0.201,0.443 -0.04,-0.277 0.438,-0.224 0.266,0.552 0.518,-0.983 0.046,0.668 0.85,-0.218 0.255,0.228 0.323,-0.344 0.121,0.47 0.593,-1.031 0.276,0.601 0.349,-0.4 0.685,0.812 0.244,-0.738 -0.045,0.463 0.403,-0.34 0.055,0.225 0.59,-0.203 0.008,0.406 0.306,-0.896 0.118,0.259 0.909,-0.123 0.522,-0.415 0.158,0.299 0.11,-0.403 0.517,-0.081 0.05,-0.509 0.19,0.565 0.42,-0.473 0.23,0.676 0.106,-0.819 0.196,0.456 0.07,-0.395 0.584,-0.455 0.2,0.168 0.244,-1.17 0.07,0.322 0.471,-1.003 0.244,-0.238 0.069,0.276 0.326,-2.422 0.306,0.418 0.204,-3.609 -0.184,-5.759 -0.808,-5.982 -0.389,-1.014 -0.352,-11.564"
     id="path2481" />
</g>
<g
   id="g2487"
   transform="translate(-372.80141,-149.08598)">
  <path
     fill="none"
     stroke="#000000"
     stroke-width="4"
     stroke-linecap="butt"
     stroke-linejoin="round"
     d="m 677.88,583.344 0.106,0.204 -0.476,-0.188 0.375,-0.106 -0.822,-2.593 -0.394,-6.859 -0.725,-3.322 -0.002,-1.795 -0.424,-0.499 0.213,-1.142 -0.099,0.185 -0.801,-0.87 -2.31,-5.864 -0.229,0.398 -0.611,-0.743 -0.552,0.183 -0.749,-1.001 -0.901,-0.383 -0.038,-0.446 -0.25,0.401 -0.314,-0.056 -0.056,-0.452 -0.315,0.452 -1.283,-0.354 -0.337,0.428 -0.976,-1.155 -0.943,0.607 -0.233,-0.6 -0.25,0.384 -0.8,0.187 -0.217,-0.337 -0.874,-0.147 -0.16,0.234 -2.089,-0.548 -1.634,0.309 -0.585,-0.235 -0.261,0.482 -0.39,0.006 -0.036,-0.487 -0.35,0.62 -0.734,-0.237 -1.003,1.195 -0.175,-0.329 -1.136,0.706 -0.173,-0.617 -0.611,1.607 -0.633,0.075 -0.71,1.389 -1.639,1.568 -0.753,0.174 -0.537,0.546 0.035,-0.285 -0.231,0.065 -0.813,1.64 -0.309,-0.016 -0.105,0.551 -0.946,0.934 0.069,0.575 -0.056,-0.238 -0.278,0.126 -0.959,2.016 0.007,0.888 -0.624,1.068 0.161,0.591 -0.477,0.292 -0.128,1.671 -0.42,0.506 -0.502,8.747 0.013,2.186 0.279,0.239 -0.095,9.139 0.261,0.162 -0.241,0.865 0.104,12.039 0.742,6.4 -0.363,6.478 0.13,1.005 0.14,0.33 0.124,-0.293 0.113,0.193 -0.325,0.963 0.317,1.619 -0.245,1.981 1.143,7.585 0.454,1.1 0.15,-0.2 0.219,1.146 0.477,0.689 0.155,-0.141 0.275,1.091 0.429,0.479 0.22,-0.171 0.339,0.935 0.101,-0.231 0.424,0.368 0.252,-0.223 -0.057,0.463 0.397,-0.342 0.502,1.197 0.237,0.092 0.71,-0.981 0.25,0.741 0.32,0.299 0.557,-0.075 0.438,0.95 0.835,-0.029 0.16,1.034 0.611,-0.741 0.338,0.464 1.102,0.333 0.497,-0.013 0.187,-0.467 0.279,0.578 0.544,-0.222 0.747,0.339 0.44,-0.499 1,1.412 0.176,-0.542 0.766,-0.483 0.652,0.789 0.363,-0.507 0.031,0.459 0.458,0.299 0.784,-0.601 0.266,0.774 0.619,-0.578 0.826,0.152 0.338,-0.357 0.881,0.401 0.593,-0.598 0.715,-0.114 0.095,0.242 0.219,-0.373 0.384,0.62 0.274,-0.918 0.13,0.348 0.641,-0.833 0.06,0.312 0.51,-0.091 2.028,-2.222 1.291,-0.683 0.396,0.167 0.507,-0.452 -0.034,-0.353 0.259,0.347 0.576,-0.246 0.857,-1.667 1.099,-1.271 0.272,0.044 0.374,-1.178 0.557,-0.465 0.094,-0.971 0.06,0.334 0.548,-0.709 0.505,-5.196 0.85,-3.42 0.9,-6.853 -0.154,-8.213 0.435,-1.182 -0.167,-7.894 0.4,-2.332 -0.259,-0.629 0.226,-1.329 -0.227,0.253 -0.052,-1.068 -0.084,0.471 -0.104,-2.347 -0.115,1.139 -0.184,-1.114 0.031,-3.471 -0.822,-5.022 0.038,-1.369 -0.403,-1.061 -0.1,0.307 -0.252,-1.264 0.006,-2.083 0.383,0.326"
     id="path2485" />
</g>
<g
   id="g2491"
   transform="translate(-372.80141,-149.08598)">
  <path
     fill="none"
     stroke="#bfbfbf"
     stroke-width="6"
     stroke-linecap="butt"
     stroke-linejoin="round"
     d="m 675.809,604.358 0.126,0.335 0.176,-0.175 -0.243,-0.288 0.239,0.311 -0.433,-0.08 0.106,0.305 -0.345,-0.577 0.086,0.527 -0.309,0.056 -0.228,-0.438 -0.108,0.266 -0.925,0.158 -0.328,-0.454 -1.324,-0.145 -1.076,0.474 -0.12,-0.302 -0.731,-0.107 -0.568,0.381 -0.215,-0.356 -0.64,0.363 -1.049,-0.727 -1.241,0.654 -0.59,-0.287 -0.26,0.526 -0.25,-0.514 -0.55,-0.064 -0.397,-0.543 -0.428,0.968 -0.384,-0.232 -0.794,0.481 -0.547,-0.684 -0.646,0.481 -0.013,-0.797 -0.317,0.562 -0.808,-0.062 -0.213,0.461 0.035,-0.425 -1.087,0.382 -0.208,-0.471 -0.068,0.646 -0.544,0.32 -0.384,-0.25 -0.218,0.591 -0.624,-0.689 -0.215,0.638 -0.311,-0.012 0.005,-0.353 -0.531,0.564 -0.052,-0.339 -0.346,0.221 0.193,-0.07 -0.315,-0.408 -0.083,0.686 -0.276,-0.659 0.002,0.379 -0.278,-0.178 -0.349,0.23 0.124,0.228 0.027,-0.373 -0.39,0.039 -0.065,0.364 -0.19,-0.689 -0.57,0.775 -0.407,-0.2 0.017,-0.412 -0.134,0.636 -0.127,-0.222 -0.499,0.186 -0.322,-0.654 -0.21,0.361 -0.489,-0.002 -0.457,-0.379 0.014,0.399 -0.233,0.09 0.043,-0.279 -0.181,0.216 0.162,0.421 0.19,-0.518 -0.261,-0.284 -0.09,0.461 0.064,-0.652 0.006,0.799 -0.463,-0.145 -0.763,0.691 -0.528,-0.134 -0.111,0.358 -0.181,-0.407 0.417,0.009 -0.038,-0.527 0.032,0.467 0.25,0.005 1.868,-0.335 0.651,-0.439 1.666,-0.131 0.515,0.248 1.504,-0.169 0.829,-0.434 1.32,0.582"
     id="path2489" />
</g>
<g
   id="g2495"
   transform="translate(-372.80141,-149.08598)">
  <path
     fill="none"
     stroke="#bfbfbf"
     stroke-width="6"
     stroke-linecap="butt"
     stroke-linejoin="round"
     d="m 664.731,591.769 -0.039,0.206 -0.203,-0.239 0.279,-1.472 0.024,0.295 -0.106,-0.241 -0.191,0.235 0.224,0.172 -0.574,0.089 0.197,0.072 -0.379,1.651 -0.204,-0.25 0.306,4.1 -0.151,6.962 -0.685,4.864 0.264,0.647 -0.257,0.385 0.195,3.984 0.383,2.402 0.177,-0.154 -0.216,0.321 0.243,0.228 -0.065,1.404 0.156,-0.745 0.088,1.837 -0.117,1.208 -0.18,-0.169 0.185,0.268 0.031,-0.377 -0.196,0.498 0.122,0.213 0.061,-0.396 0.02,0.394 -0.24,0.39 0.146,-0.522 -0.11,0.707 0.234,-0.263 -0.172,-0.446 0.151,0.807 -0.858,0.474 0.123,0.525 -0.281,-0.096 0.056,0.414 0.039,-0.514 0.344,0.263 -0.141,-0.544 -0.079,0.339 0.237,-0.406 0.233,0.176 1.747,-3.65"
     id="path2493" />
</g>
<g
   id="g2499"
   transform="translate(-372.80141,-149.08598)">
  <path
     fill="#bfbfbf"
     d="m 503.426,738.85 c 0,0 0,0 0,0 0.708,0.004 1.451,0.232 2.125,0.013 0.964,-0.314 1.897,-0.839 2.615,-1.555 0.762,-0.763 1.232,-1.781 1.696,-2.754 0.153,-0.321 0.124,-0.704 0.124,-1.06 -0.003,-1.007 0.074,-2.034 -0.134,-3.02 -0.081,-0.385 -0.569,-0.577 -0.703,-0.946 -0.193,-0.53 0.044,-1.192 -0.249,-1.675 -0.428,-0.707 -1.542,-0.921 -1.798,-1.706 -0.38,-1.164 -0.143,-2.463 0.045,-3.673 0.063,-0.401 0.764,-0.611 0.682,-1.008 -0.285,-1.39 -1.459,-2.507 -1.69,-3.907 -0.116,-0.708 0.612,-1.322 0.713,-2.033 0.189,-1.33 0.147,-2.683 0.147,-4.026 0,-0.677 0.039,-1.375 -0.147,-2.026 -0.108,-0.379 -0.639,-0.56 -0.704,-0.948 -0.223,-1.323 -0.325,-2.695 -0.133,-4.023 0.107,-0.74 0.351,-1.643 1.004,-2.006 1.023,-0.568 2.31,-0.555 3.477,-0.482 0.734,0.046 1.314,0.895 2.046,0.826 10.307,-0.964 20.567,-2.4 30.809,-3.898 0.761,-0.112 1.504,-0.452 2.117,-0.917 0.917,-0.696 1.715,-1.562 2.383,-2.5 0.201,-0.282 0.133,-0.684 0.133,-1.03 0,-0.675 0.057,-1.374 -0.132,-2.022 -0.164,-0.565 -0.431,-1.16 -0.898,-1.517 -1.021,-0.782 -2.175,-1.462 -3.42,-1.786 -0.39,-0.101 -0.631,0.631 -1.034,0.628 -0.389,-0.002 -0.602,-0.525 -0.973,-0.642 -0.335,-0.106 -0.722,-0.115 -1.054,0 -0.37,0.129 -0.57,0.589 -0.947,0.695 -0.651,0.184 -1.349,0.146 -2.026,0.146 -0.677,0 -1.372,0.028 -2.026,-0.146 -0.378,-0.1 -0.583,-0.641 -0.974,-0.651 -0.388,-0.011 -0.612,0.609 -1,0.598 -0.391,-0.01 -0.596,-0.553 -0.974,-0.652 -0.652,-0.171 -1.349,-0.212 -2.019,-0.132 -1.832,0.218 -3.606,0.815 -5.44,1.021 -6.519,0.734 -13.04,1.973 -19.598,1.798 -0.793,-0.021 -0.46,-1.54 -0.468,-2.334 -0.117,-11.86 -3.302,-24.217 0.094,-35.581 1.116,-3.735 7.522,-2.101 11.364,-2.758 0.401,-0.068 0.634,0.631 1.041,0.638 0.388,0.008 0.612,-0.605 1,-0.598 0.406,0.007 0.638,0.694 1.039,0.634 2.029,-0.302 3.892,-1.376 5.922,-1.67 0.413,-0.06 0.665,0.772 1.067,0.657 2.505,-0.721 4.755,-2.151 7.207,-3.038 1.802,-0.651 3.767,-0.817 5.529,-1.567 1.852,-0.789 3.375,-2.241 5.233,-3.015 0.288,-0.12 0.525,0.675 0.787,0.506 0.712,-0.46 0.913,-1.455 1.549,-2.015 0.782,-0.688 1.842,-1 2.639,-1.67 1.276,-1.072 2.292,-2.424 3.543,-3.524 0.315,-0.276 0.823,-0.276 1.119,-0.573 2.465,-2.478 5.215,-4.768 7.115,-7.702 1.621,-2.501 2.316,-5.5 3.269,-8.325 0.922,-2.736 1.787,-5.506 2.351,-8.338 0.264,-1.326 0.247,-2.708 0.117,-4.054 -0.744,-7.709 -1.195,-15.483 -2.736,-23.073 -1.025,-5.051 -3.156,-9.817 -4.924,-14.659 -0.962,-2.635 -1.934,-5.287 -3.262,-7.759 -1.364,-2.539 -3.08,-4.878 -4.779,-7.206 -1.018,-1.395 -2.137,-2.723 -3.359,-3.944 -1.492,-1.491 -2.897,-3.182 -4.762,-4.168 -2.761,-1.46 -6.015,-1.756 -8.865,-3.036 -2.049,-0.92 -3.63,-2.767 -5.745,-3.524 -1.281,-0.458 -2.733,-0.178 -4.08,0.01 -0.709,0.099 -1.273,0.712 -1.978,0.836 -0.665,0.117 -1.366,0.027 -2.022,-0.132 -0.696,-0.168 -1.267,-0.753 -1.978,-0.837 -1.332,-0.156 -2.697,-0.076 -4.022,0.132 -0.386,0.061 -0.583,0.647 -0.974,0.652 -0.401,0.006 -0.64,-0.719 -1.029,-0.622 -0.994,0.247 -1.889,0.864 -2.661,1.538 -0.983,0.859 -1.478,2.214 -2.526,2.993 -0.25,0.186 -0.459,-0.457 -0.757,-0.55 -0.347,-0.107 -0.738,-0.114 -1.088,-0.021 -4.369,1.158 -8.768,2.251 -13.027,3.764 -1.092,0.388 -1.812,1.533 -2.911,1.898 -0.369,0.123 -0.646,-0.756 -1.002,-0.598 -0.933,0.413 -1.412,1.503 -2.274,2.049 -1.157,0.732 -2.545,1.039 -3.718,1.744 -2.974,1.788 -5.918,3.643 -8.697,5.721 -1.169,0.874 -2.144,1.988 -3.095,3.095 -1.086,1.264 -2.076,2.612 -3,4 -1.733,2.603 -3.397,5.254 -4.962,7.962 -1.177,2.038 -2.196,4.164 -3.259,6.263 -0.963,1.902 -1.99,3.776 -2.82,5.739 -1.078,2.551 -2.029,5.157 -2.897,7.787 -0.968,2.937 -2.006,5.869 -2.61,8.902 -0.079,0.397 0.653,0.633 0.632,1.037 -0.036,0.716 -0.752,1.287 -0.784,2.003 -0.192,4.349 -0.435,8.74 0.117,13.058 0.342,2.669 1.542,5.164 2.532,7.667 1.206,3.046 2.292,6.191 4.048,8.956 1.163,1.832 3.136,3.007 4.578,4.628 1.269,1.425 2.118,3.228 3.544,4.495 1.88,1.672 4.013,3.082 6.257,4.217 1.817,0.918 3.816,1.471 5.809,1.883 5.307,1.095 11.424,-0.207 16.042,2.628 2.475,1.519 1.781,5.578 2.044,8.472 0.423,4.644 0.265,9.334 -10e-4,13.989 -0.06,1.052 -0.796,1.969 -0.969,3.008 -0.111,0.666 -0.025,1.365 0.132,2.022 0.165,0.693 0.838,1.262 0.821,1.974 -0.025,1.047 -0.938,1.952 -0.938,3 0,1.048 0.835,1.957 0.938,3 0.052,0.526 -0.055,1.209 -0.492,1.507 -1.811,1.233 -3.854,2.125 -5.918,2.858 -0.655,0.233 -1.405,0.129 -2.085,-0.013 -0.7,-0.147 -1.273,-0.71 -1.978,-0.836 -0.676,-0.121 -1.381,-0.005 -2.058,0.114 -4.648,0.822 -9.221,2.072 -13.897,2.708 -0.42,0.057 -0.665,-0.761 -1.078,-0.671 -2.64,0.576 -5.223,1.466 -7.683,2.582 -1.037,0.47 -2.351,1.028 -2.678,2.118 -0.637,2.126 -0.168,4.448 0.047,6.657 0.033,0.339 0.374,0.608 0.675,0.767 1.819,0.966 3.65,1.964 5.617,2.575 0.974,0.302 2.04,0.2 3.055,0.119 0.519,-0.042 1.056,-0.188 1.486,-0.483 0.703,-0.481 1.143,-1.28 1.828,-1.787 0.823,-0.61 1.664,-1.303 2.661,-1.538 0.407,-0.096 0.654,0.714 1.068,0.658 4.676,-0.64 9.227,-2.03 13.899,-2.705 1.812,-0.262 4.513,-1.645 5.492,-0.098 2.447,3.864 2.36,8.868 2.934,13.406 0.133,1.052 -0.723,2.013 -0.849,3.065 -0.121,1.013 -0.082,2.058 0.116,3.058 0.381,1.923 0.711,3.913 1.609,5.656 0.414,0.804 1.669,0.886 2.156,1.649 0.298,0.468 0.1,1.128 -0.045,1.662 -0.107,0.392 -0.746,0.608 -0.684,1.009 0.252,1.622 0.647,3.308 1.564,4.669 m 312.983,-94.444 c 0,0 0,0 0,0 3.915,-0.534 7.803,-1.318 11.744,-1.603 0.424,-0.03 0.664,0.759 1.081,0.676 3.046,-0.605 5.884,-2.042 8.927,-2.664 0.395,-0.08 0.656,0.767 1.034,0.628 1.32,-0.484 2.285,-1.657 3.533,-2.303 2.337,-1.21 4.923,-1.92 7.194,-3.249 4.134,-2.42 8.102,-5.127 11.963,-7.962 1.176,-0.864 2.16,-1.975 3.095,-3.095 2.436,-2.919 4.992,-5.777 7.002,-9.004 2.354,-3.783 4.122,-7.903 6.03,-11.93 0.716,-1.511 1.344,-3.071 1.834,-4.67 1.017,-3.314 2.051,-6.64 2.682,-10.049 0.073,-0.398 -0.635,-0.632 -0.632,-1.037 0.002,-0.388 0.524,-0.602 0.642,-0.973 0.106,-0.335 0.106,-0.719 0,-1.054 -0.117,-0.371 -0.661,-0.585 -0.642,-0.973 0.034,-0.716 0.702,-1.291 0.784,-2.003 0.188,-1.655 0.045,-3.332 0.014,-4.997 -0.013,-0.677 0.027,-1.372 -0.147,-2.026 -0.1,-0.378 -0.641,-0.583 -0.651,-0.974 -0.011,-0.388 0.607,-0.612 0.598,-1 -0.008,-0.388 -0.525,-0.602 -0.642,-0.973 -0.106,-0.335 -0.11,-0.72 0,-1.054 0.127,-0.387 0.737,-0.61 0.68,-1.013 -0.633,-4.417 -1.688,-8.766 -2.701,-13.112 -0.547,-2.343 -1.268,-4.643 -1.975,-6.943 -0.605,-1.97 -1.117,-3.982 -1.959,-5.863 -1.789,-3.995 -3.715,-7.941 -5.916,-11.725 -0.28,-0.483 -1.062,-0.461 -1.42,-0.891 -1.332,-1.6 -2.239,-3.525 -3.581,-5.116 -1.466,-1.738 -3.099,-3.339 -4.812,-4.833 -2.309,-2.013 -5.468,-3.165 -7.232,-5.668 -0.558,-0.791 0.896,-1.723 1.474,-2.499 1.613,-2.166 3.672,-4.007 5.084,-6.309 0.204,-0.332 -0.521,-0.621 -0.598,-1.002 -0.038,-0.183 0.191,-0.322 0.299,-0.474 0.516,-0.726 0.949,-1.525 1.574,-2.159 0.657,-0.666 1.628,-0.986 2.233,-1.7 2.151,-2.535 4.195,-5.178 5.982,-7.982 1.705,-2.676 2.829,-5.688 4.461,-8.409 0.38,-0.633 1.121,-0.983 1.539,-1.591 1.089,-1.586 2.077,-3.246 2.958,-4.957 1.93,-3.75 3.412,-7.727 5.465,-11.411 0.391,-0.703 1.022,-1.847 1.793,-1.617 0.749,0.225 0.538,1.517 0.479,2.297 -0.055,0.727 -0.928,1.314 -0.807,2.033 0.187,1.108 1.459,1.834 1.646,2.942 0.121,0.719 -0.687,1.314 -0.807,2.033 -0.111,0.666 -0.039,1.368 0.131,2.022 0.099,0.378 0.667,0.584 0.652,0.974 -0.028,0.714 -0.778,1.286 -0.768,2 0.009,0.713 0.653,1.281 0.821,1.974 0.159,0.658 0.134,1.349 0.147,2.026 0.031,1.665 0.187,3.343 -0.014,4.996 -0.087,0.711 -0.691,1.278 -0.837,1.978 -0.141,0.679 -0.229,1.422 -0.01,2.08 0.323,0.972 0.949,1.827 1.577,2.636 0.495,0.637 0.975,1.47 1.759,1.661 1.636,0.4 3.384,0.236 5.052,10e-4 0.622,-0.087 1.178,-0.506 1.631,-0.94 0.487,-0.466 0.815,-1.084 1.115,-1.688 0.6,-1.208 1.593,-2.379 1.577,-3.728 -0.021,-1.745 -1.394,-3.237 -1.682,-4.959 -0.07,-0.418 0.703,-0.656 0.672,-1.078 -0.717,-9.899 -1.757,-19.774 -2.897,-29.633 -0.13,-1.13 -0.48,-2.235 -0.91,-3.288 -0.226,-0.555 -0.474,-1.25 -1.031,-1.472 -2.385,-0.948 -4.922,-1.526 -7.461,-1.904 -0.402,-0.06 -0.633,0.63 -1.04,0.637 -0.388,0.008 -0.614,-0.639 -1,-0.598 -0.615,0.064 -1.182,0.452 -1.634,0.873 -0.679,0.631 -0.939,1.66 -1.683,2.213 -0.704,0.522 -1.633,0.653 -2.481,0.878 -2.37,0.626 -4.729,1.375 -7.162,1.672 -0.418,0.051 -0.661,-0.75 -1.074,-0.666 -2.064,0.419 -3.932,1.532 -5.961,2.094 -3.652,1.013 -7.412,1.608 -11.063,2.625 -0.637,0.178 -1.297,0.459 -1.747,0.943 -0.69,0.743 -1.292,1.634 -1.557,2.613 -0.27,0.991 -0.191,2.073 0.01,3.08 0.121,0.606 0.491,1.168 0.926,1.607 0.688,0.696 1.414,1.533 2.372,1.729 1.997,0.408 4.094,0.267 6.116,0.008 2.427,-0.312 4.822,-0.919 7.139,-1.707 1.348,-0.459 2.413,-1.577 3.771,-2.005 0.491,-0.155 1.061,0.082 1.507,0.339 0.374,0.217 0.825,0.573 0.819,1.005 -0.005,0.334 -0.657,0.264 -0.841,0.541 -0.711,1.073 -1.424,2.187 -1.785,3.421 -0.093,0.317 0.628,0.513 0.54,0.831 -0.185,0.671 -0.967,1.041 -1.233,1.683 -0.079,0.19 0.42,0.349 0.318,0.527 -0.181,0.32 -0.702,0.295 -0.942,0.574 -1.074,1.247 -2.179,2.504 -2.959,3.953 -1.768,3.289 -2.769,6.966 -4.647,10.193 -1.206,2.073 -3.112,3.654 -4.534,5.585 -1.426,1.936 -2.764,3.942 -4.002,6.004 -1.241,2.068 -2.164,4.317 -3.426,6.372 -0.604,0.983 -1.207,2.05 -2.154,2.71 -0.464,0.323 -1.144,0.095 -1.696,-0.028 -2.008,-0.447 -4.051,-0.857 -5.94,-1.67 -1.781,-0.765 -3.169,-2.301 -4.969,-3.02 -0.372,-0.149 -0.647,0.743 -1.029,0.621 -1.064,-0.339 -1.739,-1.488 -2.798,-1.842 -3.633,-1.215 -7.358,-2.214 -11.14,-2.82 -0.729,-0.116 -1.367,0.78 -2.101,0.7 -2.373,-0.26 -4.575,-1.827 -6.958,-1.692 -4.162,0.234 -8.174,1.671 -12.195,2.773 -1.11,0.304 -2.054,1.056 -3.143,1.431 -3.316,1.143 -6.855,1.672 -10.052,3.116 -3.892,1.759 -7.466,4.16 -11.082,6.434 -1.825,1.147 -3.554,2.449 -5.22,3.816 -0.62,0.508 -1.336,1.032 -1.609,1.784 -0.133,0.366 0.521,0.621 0.598,1.002 0.037,0.182 -0.167,0.341 -0.299,0.473 -0.306,0.305 -0.57,0.777 -0.999,0.825 -0.387,0.044 -0.621,-0.521 -1.002,-0.598 -0.183,-0.037 -0.339,0.17 -0.474,0.299 -1.201,1.149 -2.624,2.129 -3.525,3.525 -0.271,0.421 0.304,0.972 0.298,1.473 -0.003,0.2 -0.168,0.379 -0.323,0.505 -1.216,0.987 -2.831,1.555 -3.764,2.813 -2.032,2.743 -3.552,5.849 -4.959,8.959 -1.579,3.491 -2.752,7.155 -3.975,10.786 -0.985,2.927 -2.275,5.813 -2.645,8.878 -0.56,4.652 -0.586,9.393 -0.118,14.054 0.659,6.563 2.154,13.018 3.486,19.478 1.287,6.243 2.624,12.485 4.369,18.616 0.657,2.31 1.738,4.487 2.818,6.632 1.205,2.395 2.572,4.711 4.024,6.965 0.935,1.449 1.834,2.979 3.123,4.124 1.582,1.405 3.662,2.139 5.356,3.407 0.966,0.723 1.533,1.943 2.585,2.535 3.445,1.936 7.12,3.439 10.764,4.969 1.593,0.668 3.22,1.333 4.924,1.614 0.399,0.066 0.638,-0.702 1.037,-0.633 0.534,0.093 0.747,0.847 1.256,1.033 2.846,1.037 5.736,2.013 8.707,2.6 0.414,0.081 0.658,-0.728 1.076,-0.668 2.376,0.34 4.576,1.611 6.967,1.821 m -297.95,-0.155 c 0,0 0,0 0,0 -0.341,-0.226 -0.614,-0.678 -1.023,-0.677 -0.728,0.002 -1.349,0.752 -2.074,0.685 -3.006,-0.28 -5.884,-1.49 -8.896,-1.705 -1.058,-0.076 -2.009,0.766 -3.067,0.851 -2.012,0.161 -4.135,0.505 -6.055,-0.119 -4.408,-1.435 -8.702,-3.393 -12.573,-5.942 -2.146,-1.414 -3.526,-3.745 -5.153,-5.734 -0.75,-0.917 -1.502,-1.871 -1.962,-2.962 -1.744,-4.143 -3.357,-8.355 -4.619,-12.669 -0.288,-0.987 -0.153,-2.07 0.013,-3.085 0.064,-0.386 0.65,-0.583 0.652,-0.974 0.002,-0.388 -0.523,-0.601 -0.641,-0.97 -0.112,-0.347 -0.097,-0.736 -0.023,-1.093 0.829,-4.015 1.468,-8.091 2.724,-11.994 1.293,-4.015 3.07,-7.867 4.894,-11.671 1.798,-3.749 3.859,-7.37 5.96,-10.958 1.009,-1.723 2.033,-3.469 3.361,-4.96 1.395,-1.568 3.006,-2.961 4.74,-4.141 1.986,-1.351 4.369,-2.046 6.349,-3.404 0.7,-0.48 0.84,-1.557 1.553,-2.017 0.262,-0.169 0.478,0.553 0.786,0.506 0.619,-0.094 1.166,-0.492 1.659,-0.877 0.591,-0.462 0.869,-1.314 1.549,-1.631 0.284,-0.133 0.463,0.46 0.763,0.552 0.345,0.105 0.738,0.124 1.081,0.014 0.679,-0.218 1.224,-0.761 1.903,-0.974 1.729,-0.543 3.507,-0.921 5.283,-1.283 2.906,-0.593 5.798,-1.363 8.756,-1.583 0.715,-0.053 1.288,0.739 2.004,0.783 0.388,0.024 0.612,-0.598 1,-0.598 0.389,0 0.612,0.605 1,0.598 0.405,-0.006 0.64,-0.711 1.037,-0.632 3.028,0.608 5.98,1.577 8.886,2.623 1.421,0.511 2.594,1.628 4.048,2.033 0.387,0.107 0.648,-0.745 1.029,-0.622 0.813,0.262 1.231,1.968 2,1.598 1.92,-0.924 2.81,-3.213 4.371,-4.664 0.16,-0.149 0.458,-0.101 0.655,-0.007 0.933,0.444 1.839,0.964 2.664,1.587 0.685,0.518 1.301,1.138 1.833,1.813 0.651,0.826 1.045,1.833 1.692,2.662 1.05,1.345 2.418,2.435 3.386,3.84 1.201,1.743 2.253,3.605 3.087,5.551 1.056,2.468 1.551,5.148 2.558,7.637 0.208,0.512 0.952,0.738 1.053,1.281 0.074,0.395 -0.771,0.657 -0.622,1.03 0.589,1.472 2.035,2.497 2.622,3.97 0.145,0.363 -0.568,0.593 -0.651,0.975 -0.148,0.68 -0.181,1.411 -0.017,2.087 0.735,3.013 2.065,5.869 2.698,8.905 0.082,0.395 -0.623,0.631 -0.628,1.034 -0.006,0.388 0.598,0.611 0.598,1 0,0.388 -0.598,0.611 -0.598,1 0,0.389 0.598,0.611 0.598,1 0,0.389 -0.598,0.611 -0.598,1 0,0.388 0.608,0.612 0.598,1 -0.01,0.39 -0.551,0.595 -0.65,0.972 -0.141,0.544 -0.297,1.185 -0.041,1.685 0.343,0.67 1.685,0.759 1.679,1.513 -0.025,3.109 -0.785,6.209 -1.764,9.16 -0.572,1.726 -2.159,2.976 -2.822,4.669 -0.143,0.363 0.515,0.624 0.598,1.004 0.033,0.155 -0.191,0.254 -0.302,0.367 -2.759,2.815 -5.331,5.831 -8.307,8.415 -1.901,1.651 -4.015,3.087 -6.258,4.231 -4.669,2.381 -9.481,4.507 -14.404,6.307 -0.39,0.142 -0.654,-0.73 -1.062,-0.652 -1.731,0.329 -3.224,1.553 -4.969,1.799 -0.705,0.099 -1.279,-0.656 -1.971,-0.822 -0.656,-0.157 -1.351,-0.227 -2.019,-0.133 m 302.066,-8.167 c 0,0 0,0 0,0 -1.024,-0.272 -2.013,-0.841 -3.073,-0.817 -1.05,0.023 -1.957,0.867 -3.004,0.954 -2.345,0.195 -4.729,0.218 -7.058,-0.116 -4.025,-0.575 -7.988,-1.559 -11.919,-2.599 -2.039,-0.539 -3.883,-1.757 -5.96,-2.131 -0.72,-0.129 -1.414,0.971 -2.088,0.684 -4.098,-1.745 -7.86,-4.202 -11.655,-6.534 -1.53,-0.941 -3.011,-2 -4.287,-3.265 -0.927,-0.92 -1.413,-2.206 -2.244,-3.214 -0.761,-0.924 -1.988,-1.489 -2.516,-2.563 -1.685,-3.43 -3.093,-7.03 -4.016,-10.738 -2.63,-10.552 -4.744,-21.234 -6.619,-31.946 -0.124,-0.712 0.662,-1.341 0.665,-2.063 0.002,-0.391 -0.6,-0.587 -0.652,-0.974 -0.178,-1.351 -0.231,-2.742 -0.017,-4.088 0.618,-3.902 1.335,-7.809 2.502,-11.583 1.383,-4.474 3.23,-8.798 5.121,-13.082 0.479,-1.084 1.216,-2.044 1.962,-2.963 0.772,-0.952 1.861,-1.629 2.574,-2.626 0.967,-1.355 1.347,-3.097 2.422,-4.368 1.879,-2.219 4.02,-4.239 6.342,-5.989 3.078,-2.318 6.271,-4.572 9.784,-6.157 3.668,-1.655 7.741,-2.213 11.563,-3.472 0.731,-0.241 1.308,-0.928 2.072,-1.02 0.409,-0.049 0.656,0.744 1.056,0.644 2.4,-0.604 4.535,-2.046 6.935,-2.655 0.392,-0.099 0.632,0.634 1.037,0.633 0.407,-0.001 0.636,-0.685 1.041,-0.638 2.68,0.311 5.238,1.365 7.918,1.676 0.404,0.047 0.634,-0.638 1.041,-0.637 0.388,10e-4 0.602,0.525 0.973,0.642 0.335,0.106 0.722,0.114 1.054,0 0.368,-0.127 0.577,-0.56 0.946,-0.686 0.332,-0.114 0.745,-0.167 1.054,0.001 0.752,0.408 1.165,1.358 1.972,1.641 0.367,0.129 0.615,-0.639 1.001,-0.598 0.614,0.064 1.187,0.446 1.633,0.873 1.337,1.278 2.053,3.245 3.649,4.179 2.878,1.684 6.454,1.866 9.388,3.449 1.498,0.809 2.333,2.492 3.64,3.583 2.8,2.339 6.002,4.195 8.662,6.692 2.525,2.37 4.86,4.982 6.817,7.839 2.516,3.675 4.652,7.619 6.534,11.655 0.169,0.364 -0.692,0.635 -0.623,1.03 0.093,0.527 0.852,0.731 1.021,1.239 1.388,4.184 2.691,8.412 3.612,12.723 0.088,0.412 -0.735,0.659 -0.666,1.074 0.285,1.71 1.381,3.216 1.666,4.926 0.066,0.399 -0.55,0.625 -0.676,1.01 -0.11,0.334 -0.092,0.715 0,1.054 0.188,0.689 0.786,1.264 0.828,1.976 0.237,3.99 0.363,8.01 10e-4,11.99 -0.218,2.401 -0.891,4.762 -1.731,7.02 -1.734,4.661 -3.824,9.186 -5.969,13.673 -0.519,1.086 -1.207,2.101 -2.003,3.004 -0.371,0.421 -1.078,0.453 -1.428,0.891 -1.001,1.252 -1.476,2.887 -2.545,4.081 -0.654,0.731 -1.736,0.938 -2.5,1.553 -0.953,0.767 -1.647,1.828 -2.62,2.57 -1.913,1.458 -3.932,2.781 -6.005,4.002 -1.913,1.127 -3.899,2.136 -5.931,3.031 -2.326,1.025 -4.667,2.063 -7.122,2.719"
     id="path2497" />
</g>
<g
   id="g2503"
   transform="translate(-372.80141,-149.08598)">
  <path
     fill="#bfbfbf"
     d="m 538.799,450.685 c 0,0 0,0 0,0 0.728,-0.713 1.811,-1.19 2.184,-2.138 0.376,-0.954 0.225,-2.112 -0.132,-3.073 -0.28,-0.756 -1.024,-1.265 -1.661,-1.759 -0.808,-0.626 -1.692,-1.176 -2.635,-1.571 -0.333,-0.14 -0.822,-0.235 -1.082,0.015 -0.966,0.934 -1.801,2.054 -2.335,3.287 -0.279,0.645 -0.279,1.463 0,2.108 0.535,1.236 1.159,2.645 2.338,3.297 m -4.513,-22.34 c 0,0 0,0 0,0 0.71,-1.925 1.579,-3.798 2.132,-5.773 0.753,-2.685 1.377,-5.416 1.775,-8.176 0.196,-1.36 0.215,-2.766 0,-4.124 -0.385,-2.42 -0.949,-4.829 -1.786,-7.132 -0.736,-2.026 -2.232,-3.73 -2.907,-5.778 -0.13,-0.394 0.784,-0.668 0.652,-1.062 -0.71,-2.133 -2.114,-3.972 -3.014,-6.032 -0.986,-2.258 -2.043,-4.515 -2.637,-6.906 -0.097,-0.39 0.542,-0.62 0.674,-0.999 0.183,-0.53 -0.108,-1.23 0.248,-1.662 1.101,-1.334 2.746,-2.128 3.923,-3.395 0.745,-0.802 0.931,-2.073 1.788,-2.756 3.201,-2.553 6.728,-4.676 10.219,-6.817 1.64,-1.005 3.539,-1.551 5.147,-2.606 1.448,-0.95 2.816,-2.064 3.957,-3.367 1.334,-1.524 2.548,-3.2 3.401,-5.038 1.078,-2.325 1.822,-4.815 2.334,-7.327 0.274,-1.346 0.216,-2.765 10e-4,-4.123 -0.384,-2.421 -1.001,-4.811 -1.786,-7.133 -0.76,-2.248 -1.592,-4.508 -2.834,-6.529 -0.756,-1.229 -1.921,-2.176 -3.06,-3.061 -2.124,-1.65 -4.219,-3.449 -6.689,-4.514 -0.656,-0.283 -1.287,0.795 -2.001,0.768 -1.05,-0.039 -1.956,-0.876 -3.004,-0.954 -2.667,-0.198 -5.389,-0.336 -8.022,0.134 -0.844,0.15 -1.165,1.364 -1.973,1.65 -0.367,0.13 -0.62,-0.674 -1.002,-0.598 -0.541,0.107 -0.778,0.817 -1.278,1.05 -2.744,1.279 -5.669,2.15 -8.399,3.458 -1.088,0.52 -2.095,1.223 -3.012,2.006 -0.977,0.834 -2.357,1.558 -2.632,2.812 -0.19,0.869 0.664,2.005 1.536,2.181 0.763,0.155 1.042,-1.274 1.786,-1.507 0.382,-0.121 0.65,0.753 1.028,0.622 1.764,-0.61 3.051,-2.604 4.915,-2.679 4.993,-0.202 9.973,0.9 14.872,1.879 1.712,0.341 3.376,1.069 4.817,2.054 0.806,0.551 1.359,1.474 1.69,2.393 0.11,0.307 -0.664,0.522 -0.533,0.82 0.296,0.675 1.373,0.843 1.575,1.552 0.162,0.573 -0.968,1.15 -0.663,1.662 0.28,0.468 1.481,-0.551 1.637,-0.028 0.572,1.924 0.236,4.015 0.147,6.02 -0.023,0.521 -0.15,1.085 -0.483,1.486 -1.297,1.565 -2.718,3.053 -4.318,4.307 -1.515,1.186 -3.245,2.078 -4.956,2.958 -1.402,0.72 -3.073,0.92 -4.36,1.83 -1.034,0.731 -1.464,2.091 -2.397,2.947 -0.775,0.71 -1.882,0.986 -2.661,1.691 -2.734,2.475 -5.352,5.084 -7.833,7.813 -0.885,0.973 -1.735,2.037 -2.23,3.255 -1.135,2.791 -2.595,5.641 -2.611,8.654 -0.018,3.367 1.435,6.594 2.511,9.785 0.66,1.955 1.897,3.673 2.672,5.585 1.288,3.175 2.632,6.348 3.51,9.659 0.104,0.392 -0.594,0.612 -0.681,1.008 -0.146,0.668 -0.205,1.401 0.01,2.05 0.102,0.308 0.685,0.213 0.835,0.5 1.738,3.326 2.943,6.917 4.757,10.201 0.86,1.556 2.073,2.894 3.227,4.247 0.439,0.515 0.931,1.019 1.531,1.332 m 322.963,-1.977 c 0,0 0,0 0,0 1.902,-0.844 3.88,-1.535 5.706,-2.534 0.545,-0.298 1.009,-0.777 1.325,-1.312 0.262,-0.444 0.412,-0.998 0.341,-1.508 -0.055,-0.386 -0.561,-0.577 -0.685,-0.946 -0.112,-0.332 -0.289,-0.872 0.012,-1.052 0.477,-0.285 1.311,0.476 1.667,0.049 0.445,-0.533 0.213,-1.413 0.028,-2.083 -0.355,-1.287 -0.96,-2.502 -1.615,-3.666 -0.237,-0.421 -0.608,-0.782 -1.025,-1.025 -1.173,-0.683 -2.544,-0.997 -3.692,-1.722 -0.774,-0.49 -1.148,-1.56 -2.007,-1.879 -0.954,-0.355 -2.092,-0.335 -3.052,0 -0.769,0.267 -1.272,1.038 -1.772,1.681 -0.401,0.516 -0.655,1.136 -0.892,1.746 -0.62,1.598 -1.425,3.166 -1.673,4.863 -0.104,0.714 0.653,1.339 0.662,2.061 0.005,0.401 -0.785,0.663 -0.622,1.029 0.668,1.496 1.466,3.14 2.864,3.994 0.585,0.358 0.982,-1.436 1.639,-1.241 0.607,0.179 0.029,1.354 0.421,1.851 m 2.697,-39.442 c 0,0 0,0 0,0 0.838,-0.51 1.882,-0.779 2.514,-1.53 1.15,-1.366 1.483,-3.313 2.681,-4.638 0.478,-0.529 1.555,-0.089 2.053,-0.599 0.891,-0.913 1.66,-2.101 1.819,-3.366 0.502,-3.986 0.498,-8.052 0.121,-12.052 -0.195,-2.071 -1.557,-3.905 -1.819,-5.969 -0.092,-0.724 0.822,-1.308 0.802,-2.037 -0.028,-1.047 -1.124,-1.967 -0.939,-2.997 0.424,-2.361 1.51,-4.584 2.677,-6.68 0.752,-1.351 1.8,-2.567 3.009,-3.531 0.244,-0.194 0.479,0.455 0.786,0.506 0.184,0.03 0.334,-0.175 0.473,-0.298 1.932,-1.715 3.633,-3.71 5.735,-5.211 0.266,-0.189 0.509,0.629 0.82,0.533 1.306,-0.402 2.501,-1.134 3.63,-1.904 0.619,-0.422 0.874,-1.305 1.55,-1.629 0.282,-0.135 0.532,0.684 0.79,0.507 0.981,-0.669 1.306,-2.131 2.369,-2.662 0.525,-0.262 1.106,0.928 1.631,0.665 1.697,-0.85 2.658,-2.817 4.355,-3.666 0.53,-0.265 1.08,0.833 1.649,0.666 0.354,-0.105 -0.485,-0.837 -0.213,-1.088 1.54,-1.417 3.313,-2.622 5.208,-3.51 0.353,-0.166 0.73,0.873 1.005,0.597 0.315,-0.315 -0.431,-0.874 -0.302,-1.301 0.097,-0.324 0.646,-0.281 0.857,-0.546 0.653,-0.819 0.904,-1.957 1.689,-2.651 0.225,-0.199 0.453,0.518 0.753,0.496 0.329,-0.024 0.59,-0.338 0.781,-0.607 0.593,-0.837 1.448,-1.645 1.54,-2.667 0.04,-0.45 -0.905,0.439 -1.325,0.277 -0.31,-0.121 -0.554,-0.66 -0.361,-0.93 0.695,-0.97 2.196,-1.265 2.705,-2.344 0.303,-0.64 -0.63,-1.317 -0.64,-2.025 -0.006,-0.388 0.578,-0.611 0.597,-0.998 0.015,-0.315 -0.631,-0.506 -0.51,-0.797 0.256,-0.617 1.452,-0.741 1.424,-1.408 -0.032,-0.784 -1.436,-0.993 -1.554,-1.77 -0.157,-1.035 0.723,-1.988 0.827,-3.031 0.133,-1.344 0.216,-2.743 -0.123,-4.05 -0.282,-1.087 -1.393,-1.833 -1.685,-2.917 -0.105,-0.388 0.906,-0.749 0.621,-1.033 -0.384,-0.383 -1.392,0.518 -1.628,0.029 -0.312,-0.647 0.785,-1.348 0.653,-2.054 -0.19,-1.007 -0.997,-1.793 -1.54,-2.663 -0.637,-1.018 -1.225,-2.079 -1.998,-2.998 -0.821,-0.976 -1.598,-2.121 -2.758,-2.652 -0.577,-0.265 -1.199,0.675 -1.823,0.554 -0.682,-0.133 -1.037,-0.972 -1.68,-1.235 -0.253,-0.103 -0.526,0.304 -0.789,0.228 -1.281,-0.373 -2.395,-1.247 -3.699,-1.534 -0.321,-0.07 -0.526,0.674 -0.826,0.54 -0.679,-0.305 -0.844,-1.375 -1.551,-1.605 -1.158,-0.378 -2.442,-0.225 -3.652,-0.092 -3.954,0.434 -7.941,0.817 -11.799,1.788 -1.122,0.283 -1.994,1.19 -2.898,1.913 -0.751,0.601 -1.581,1.195 -2.042,2.039 -0.792,1.451 -1.396,3.048 -1.631,4.685 -0.103,0.714 0.657,1.339 0.662,2.061 0.003,0.388 -0.525,0.602 -0.642,0.973 -0.106,0.335 -0.137,0.731 10e-4,1.054 0.17,0.4 0.458,0.817 0.861,0.976 0.786,0.308 1.7,0.593 2.507,0.348 0.825,-0.251 1.214,-1.25 1.948,-1.702 0.294,-0.182 0.683,-0.134 1.029,-0.134 1.008,0 2.03,-0.049 3.021,0.133 0.313,0.058 0.476,0.682 0.772,0.564 0.615,-0.246 0.752,-1.235 1.386,-1.426 0.312,-0.094 0.181,0.657 0.413,0.884 0.426,0.415 0.935,0.772 1.494,0.976 2.151,0.785 4.872,0.445 6.579,1.971 1.709,1.527 1.969,4.15 2.699,6.322 0.219,0.651 0.3,1.394 0.117,2.055 -0.359,1.307 -0.96,2.559 -1.699,3.696 -0.522,0.802 -1.167,1.611 -2.026,2.031 -1.8,0.88 -3.954,0.869 -5.746,1.766 -2.925,1.465 -5.436,3.653 -8.286,5.26 -1.724,0.972 -3.675,1.498 -5.405,2.461 -2.75,1.53 -5.605,2.969 -8.006,5.003 -2.023,1.715 -3.72,3.842 -5.104,6.105 -1.855,3.033 -3.321,6.313 -4.534,9.656 -0.137,0.376 0.542,0.619 0.665,1.001 0.108,0.334 0.092,0.715 0,1.054 -0.189,0.689 -0.744,1.267 -0.828,1.976 -0.196,1.653 -0.185,3.339 0,4.993 0.08,0.713 0.752,1.288 0.784,2.004 0.017,0.39 -0.553,0.596 -0.652,0.974 -0.17,0.652 -0.203,1.348 -0.132,2.019 0.494,4.668 1.464,9.284 1.826,13.965 0.032,0.418 -0.798,0.673 -0.664,1.07 0.333,0.98 1.428,1.543 1.867,2.48 1.081,2.304 1.514,4.882 2.654,7.157 0.366,0.73 1.011,1.401 1.776,1.686 m -85.515,-28.328 c 0,0 0,0 0,0 0.298,-0.33 0.783,-0.561 0.893,-0.992 0.25,-0.979 0.211,-2.02 0.133,-3.028 -0.04,-0.518 -0.209,-1.041 -0.482,-1.484 -0.23,-0.37 -0.547,-0.796 -0.977,-0.87 -1.331,-0.231 -2.783,-0.463 -4.052,0 -1.03,0.375 -1.811,1.357 -2.325,2.325 -0.321,0.604 -0.321,1.448 0,2.052 0.514,0.968 1.329,1.867 2.325,2.325 0.916,0.422 2.016,0.207 3.022,0.134 M 899.527,320.79 c 0,0 0,0 0,0 -0.12,-0.437 -0.352,-0.858 -0.359,-1.31 -0.002,-0.146 0.255,-0.405 0.332,-0.282 0.245,0.387 0.325,0.875 0.332,1.332 M 733.96,318.523 c 0,0 0,0 0,0 0.724,-0.532 1.545,-0.954 2.174,-1.597 1.014,-1.037 2.22,-2.037 2.717,-3.4 0.466,-1.277 0.337,-2.759 0.011,-4.08 -0.591,-2.39 -1.65,-4.649 -2.716,-6.867 -0.81,-1.685 -1.829,-3.267 -2.893,-4.802 -0.421,-0.608 -1.133,-0.978 -1.542,-1.593 -0.922,-1.387 -1.455,-3.013 -2.422,-4.368 -0.713,-0.997 -1.839,-1.645 -2.574,-2.626 -1.276,-1.702 -2.154,-3.679 -3.43,-5.38 -0.734,-0.979 -1.806,-1.665 -2.57,-2.62 -1.908,-2.385 -3.483,-5.028 -5.432,-7.38 -0.355,-0.428 -1.026,-0.487 -1.417,-0.884 -0.817,-0.83 -1.585,-1.734 -2.158,-2.748 -1.013,-1.793 -2.171,-3.598 -2.569,-5.619 -0.183,-0.932 0.234,-2.051 0.935,-2.693 2.423,-2.215 5.524,-3.567 8.116,-5.583 0.439,-0.342 0.49,-1.023 0.884,-1.417 1.389,-1.386 3.039,-2.494 4.426,-3.881 0.297,-0.297 0.278,-0.822 0.574,-1.119 0.66,-0.663 1.608,-1.004 2.233,-1.7 0.697,-0.773 1.004,-1.838 1.67,-2.638 0.991,-1.192 2.366,-2.046 3.272,-3.303 0.863,-1.195 1.45,-2.58 1.968,-3.961 0.694,-1.853 1.288,-3.757 1.652,-5.703 0.191,-1.022 0.302,-2.125 -0.003,-3.12 -0.919,-2.992 -2.067,-5.946 -3.617,-8.666 -0.715,-1.255 -1.873,-2.247 -3.065,-3.063 -2.072,-1.419 -4.2,-2.942 -6.63,-3.574 -2.294,-0.598 -4.795,-0.503 -7.113,-0.004 -3.439,0.74 -6.642,2.331 -9.898,3.665 -1.293,0.529 -2.557,1.155 -3.729,1.915 -2.063,1.337 -4.125,2.711 -5.948,4.36 -1.073,0.971 -1.965,2.162 -2.665,3.429 -0.124,0.226 0.55,0.124 0.774,-0.004 0.581,-0.329 0.879,-1.127 1.525,-1.298 0.387,-0.103 0.641,0.722 1.029,0.622 1.088,-0.281 1.854,-1.366 2.942,-1.646 0.388,-0.1 0.667,0.794 1.03,0.622 2.189,-1.037 3.892,-2.937 6.074,-3.989 1.861,-0.897 3.88,-1.551 5.931,-1.796 2.664,-0.319 5.399,-0.298 8.048,0.124 1.011,0.161 1.842,0.931 2.636,1.577 1.118,0.911 2.236,1.876 3.059,3.06 0.763,1.097 1.28,2.374 1.617,3.666 0.257,0.988 0.134,2.038 0.134,3.059 0,1.021 0.123,2.071 -0.134,3.059 -0.337,1.292 -0.878,2.553 -1.617,3.666 -0.667,1.005 -1.782,1.642 -2.534,2.585 -0.571,0.715 -0.76,1.71 -1.408,2.356 -1.443,1.439 -3.298,2.412 -4.78,3.811 -0.991,0.936 -1.553,2.284 -2.601,3.157 -2.923,2.435 -6.491,4.07 -9.236,6.704 -1.267,1.216 -2.034,2.93 -2.552,4.608 -0.399,1.29 -0.344,2.716 -0.124,4.048 0.338,2.043 1.006,4.032 1.778,5.954 0.801,1.991 1.782,3.919 2.921,5.738 1.035,1.652 2.528,2.985 3.575,4.63 1.294,2.033 2.089,4.362 3.424,6.368 0.669,1.006 1.859,1.59 2.537,2.591 0.763,1.124 0.993,2.547 1.723,3.692 1.625,2.549 3.842,4.708 5.315,7.347 2.728,4.891 4.604,10.221 7.243,15.161 0.435,0.815 1.08,1.616 1.922,1.996 M 896.527,291.79 c 0,0 0,0 0,0 -0.12,-0.437 -0.352,-0.858 -0.359,-1.31 -0.002,-0.146 0.255,-0.405 0.332,-0.282 0.245,0.387 0.325,0.875 0.332,1.332"
     id="path2501" />
</g>
<g
   id="g2507"
   transform="translate(-372.80141,-149.08598)">
  <path
     fill="#000000"
     d="m 375.964,898.514 c 0,0 0,0 0,0 1.374,-8.552 0.744,-17.68 4.121,-25.656 1.367,-3.227 5.888,-3.831 9.025,-5.393 2.173,-1.081 4.679,-1.393 6.837,-2.504 0.296,-0.152 0.226,-0.786 -0.03,-1 -0.978,-0.815 -2.177,-1.342 -3.357,-1.821 -0.345,-0.14 -0.793,-0.18 -1.116,0.004 -3.067,1.743 -5.791,4.062 -8.916,5.698 -0.415,0.217 -1.177,0.112 -1.37,-0.314 -0.417,-0.92 -0.282,-2.025 -0.143,-3.024 0.099,-0.709 0.699,-1.276 0.837,-1.978 0.195,-0.991 0.148,-2.016 0.148,-3.026 0,-1.676 0.086,-3.366 -0.148,-5.026 -0.1,-0.709 -0.739,-1.268 -0.837,-1.977 -0.138,-0.999 -0.562,-2.305 0.147,-3.021 0.562,-0.567 1.545,0.445 2.342,0.509 1.325,0.107 2.677,0.216 3.989,10e-4 2.715,-0.446 5.294,-1.557 8.014,-1.972 1.325,-0.203 2.696,-0.08 4.019,0.133 0.398,0.064 0.617,0.791 1.002,0.675 0.929,-0.28 1.816,-0.893 2.368,-1.69 0.315,-0.455 0.184,-1.157 -0.047,-1.661 -0.26,-0.566 -0.712,-1.195 -1.323,-1.323 -1.66,-0.347 -3.405,-0.224 -5.088,-0.019 -3.348,0.41 -6.598,1.444 -9.945,1.857 -1.33,0.164 -2.695,0.077 -4.019,-0.134 -0.704,-0.112 -1.262,-0.797 -1.974,-0.821 -0.614,-0.022 -1.566,0.095 -1.707,0.693 -1.734,7.381 -2.298,14.993 -3.729,22.439 -0.163,0.846 -0.492,1.7 -1.038,2.366 -0.186,0.227 -0.969,-0.304 -0.879,-0.026 0.357,1.099 1.836,1.792 1.825,2.947 -0.036,4.071 -1.598,8.001 -1.958,12.056 -0.295,3.317 -0.272,6.672 10e-4,9.99 0.061,0.742 0.538,1.41 0.986,2.004 0.4,0.531 0.918,1 1.508,1.305 m 52.29,-2.12 c 0,0 0,0 0,0 0.7,-0.617 2.244,-0.929 2.1,-1.85 -0.185,-1.183 -2.467,-1.148 -2.75,-2.311 -0.715,-2.943 -0.502,-6.096 -0.019,-9.086 1.02,-6.309 2.651,-12.519 4.501,-18.637 1.069,-3.537 3.155,-6.712 4.231,-10.247 0.394,-1.292 0.205,-2.702 0.122,-4.051 -0.029,-0.472 -0.071,-1.066 -0.454,-1.344 -0.413,-0.3 -1.263,-0.532 -1.528,-0.096 -1.843,3.026 -3.151,6.365 -4.326,9.707 -1.884,5.363 -3.375,10.86 -4.834,16.354 -0.725,2.735 -1.451,5.496 -1.712,8.314 -0.311,3.357 -0.573,6.794 0.008,10.116 0.232,1.327 1.22,2.545 2.338,3.296 m 57.254,-1.101 c 0,0 0,0 0,0 2.726,-0.738 5.485,-1.361 8.176,-2.214 0.733,-0.233 1.39,-0.662 2.065,-1.033 0.849,-0.467 1.762,-0.854 2.501,-1.48 1.238,-1.047 2.588,-2.082 3.379,-3.496 0.366,-0.654 0.554,-2.039 -0.167,-2.243 -0.862,-0.244 -1.325,1.293 -2.174,1.581 -0.309,0.105 -0.517,-0.744 -0.795,-0.572 -0.721,0.444 -0.88,1.495 -1.548,2.015 -1.748,1.36 -3.576,2.687 -5.613,3.555 -0.937,0.4 -2.035,0.139 -3.054,0.138 -2.009,-0.003 -4.212,0.717 -6.024,-0.149 -1.639,-0.784 -2.4,-2.757 -3.325,-4.321 -0.252,-0.427 -0.54,-1.244 -0.106,-1.484 1.968,-1.093 4.411,-1.059 6.441,-2.033 2.097,-1.005 4.088,-2.296 5.822,-3.848 1.103,-0.987 1.807,-2.355 2.543,-3.639 0.173,-0.3 0.134,-0.684 0.134,-1.03 0,-1.008 0.288,-2.106 -0.134,-3.022 -0.457,-0.996 -1.295,-1.95 -2.325,-2.326 -1.278,-0.466 -2.775,-0.394 -4.08,-0.01 -1.694,0.498 -3.227,1.501 -4.63,2.573 -1.537,1.175 -2.929,2.568 -4.105,4.105 -1.072,1.403 -2.161,2.913 -2.573,4.63 -0.476,1.981 -0.335,4.102 -0.004,6.113 0.218,1.317 0.855,2.568 1.617,3.666 0.812,1.171 1.852,2.212 3.024,3.024 1.097,0.76 2.387,1.224 3.664,1.611 m 184.042,-1.071 c 0,0 0,0 0,0 0.539,-0.734 1.287,-1.354 1.618,-2.203 1.145,-2.932 2.009,-5.973 2.766,-9.028 0.167,-0.674 0.135,-1.405 -0.013,-2.084 -0.083,-0.382 -0.649,-0.583 -0.651,-0.974 -0.002,-0.389 0.525,-0.602 0.642,-0.973 0.106,-0.335 0.173,-0.749 -10e-4,-1.055 -0.32,-0.561 -1.134,-1.961 -1.378,-1.363 -2.008,4.915 -3.113,10.16 -4.328,15.329 -0.121,0.513 0.099,1.083 0.361,1.541 m -120.661,0.56 c 0,0 0,0 0,0 1.301,-5.251 1.582,-10.867 3.904,-15.754 0.836,-1.761 3.253,-2.172 5.011,-3.014 1.428,-0.684 3.081,-0.826 4.495,-1.54 0.648,-0.327 0.972,-1.095 1.564,-1.516 1.732,-1.234 3.745,-2.07 5.38,-3.43 2.069,-1.722 4.179,-3.512 5.661,-5.759 0.556,-0.842 0.212,-2.017 0.134,-3.023 -0.04,-0.519 -0.15,-1.084 -0.483,-1.485 -1.297,-1.565 -2.707,-3.068 -4.318,-4.307 -1.4,-1.076 -2.923,-2.122 -4.63,-2.573 -1.646,-0.435 -3.448,-0.381 -5.108,0 -1.121,0.257 -2.039,1.097 -2.918,1.839 -1.381,1.165 -2.666,2.456 -3.821,3.846 -0.476,0.572 -0.767,1.286 -1.027,1.984 -1.069,2.874 -2.192,5.742 -2.952,8.713 -1.427,5.586 -2.756,11.214 -3.597,16.918 -0.373,2.538 -0.652,5.207 -0.029,7.695 0.237,0.943 1.514,1.246 2.38,1.691 m 54.255,-2.078 c 0,0 0,0 0,0 3.212,-0.847 6.498,-1.449 9.634,-2.542 0.943,-0.329 1.904,-0.865 2.48,-1.68 0.389,-0.552 0.2,-1.349 0.133,-2.021 -0.052,-0.517 -0.158,-1.077 -0.482,-1.485 -0.97,-1.224 -2.067,-2.373 -3.318,-3.307 -1.335,-0.995 -2.969,-1.52 -4.367,-2.425 -0.292,-0.189 -0.716,-0.48 -0.645,-0.822 0.27,-1.31 0.731,-2.654 1.578,-3.689 1.105,-1.35 3.127,-1.804 4.1,-3.251 0.445,-0.661 0.243,-1.806 -0.322,-2.367 -0.493,-0.488 -1.43,-0.256 -2.082,-0.019 -1.08,0.393 -2.166,0.968 -2.917,1.838 -1.402,1.624 -2.374,3.581 -3.391,5.47 -0.169,0.313 -0.152,0.705 -0.124,1.059 0.093,1.167 0.072,2.382 0.484,3.477 0.216,0.577 0.809,0.947 1.312,1.303 1.736,1.228 3.692,2.137 5.379,3.432 0.382,0.292 1.139,1.009 0.722,1.249 -1.945,1.116 -4.211,1.621 -6.418,2.02 -1.319,0.238 -2.696,0.08 -4.019,-0.134 -0.398,-0.064 -0.627,-0.82 -1.003,-0.675 -1.247,0.481 -3.26,0.987 -3.267,2.323 -0.008,1.337 1.977,1.927 3.242,2.362 m -195.949,-0.008 c 0,0 0,0 0,0 1.231,-0.857 2.57,-1.575 3.693,-2.569 1.409,-1.247 2.018,-4.491 3.861,-4.115 1.84,0.375 0.968,3.68 1.927,5.296 0.275,0.461 0.989,0.494 1.525,0.519 1.075,0.049 2.647,0.613 3.214,-0.301 0.48,-0.774 -1.458,-1.263 -1.699,-2.141 -0.358,-1.298 -0.188,-2.706 -0.003,-4.04 0.098,-0.709 0.724,-1.27 0.837,-1.977 0.237,-1.482 -0.782,-3.362 0.199,-4.498 1.258,-1.458 3.761,-1.023 5.416,-2.008 0.461,-0.274 0.472,-0.989 0.518,-1.524 0.085,-1.005 0.305,-2.114 -0.134,-3.022 -0.556,-1.151 -1.666,-1.957 -2.661,-2.759 -0.811,-0.653 -1.664,-1.587 -2.706,-1.565 -2.816,0.061 -5.585,0.91 -8.257,1.801 -1.921,0.641 -3.769,1.576 -5.411,2.76 -1.569,1.133 -2.929,2.568 -4.105,4.105 -1.072,1.403 -2.249,2.894 -2.573,4.63 -0.556,2.974 -0.185,6.058 0.011,9.077 0.021,0.318 0.346,0.571 0.626,0.724 1.173,0.64 2.38,1.257 3.666,1.618 m 308.328,-1.145 c 0,0 0,0 0,0 2.805,-1.477 5.761,-2.697 8.415,-4.431 1.223,-0.8 2.176,-1.968 3.101,-3.099 0.612,-0.749 1.653,-1.549 1.474,-2.499 -0.166,-0.883 -1.416,-1.891 -2.23,-1.512 -1.601,0.746 -1.96,3.014 -3.346,4.11 -2.325,1.839 -4.961,3.279 -7.629,4.573 -0.616,0.299 -1.369,0.188 -2.05,0.121 -0.472,-0.046 -1.233,0.005 -1.347,-0.456 -0.406,-1.644 -0.386,-3.428 -0.019,-5.081 0.293,-1.325 0.984,-2.615 1.938,-3.578 3.146,-3.174 7.118,-5.461 10.213,-8.684 1.221,-1.273 1.971,-2.969 2.567,-4.629 0.178,-0.494 -0.1,-1.076 -0.353,-1.535 -0.211,-0.382 -0.55,-0.779 -0.977,-0.872 -1.003,-0.218 -2.089,-0.279 -3.08,-0.01 -0.978,0.265 -1.886,0.848 -2.612,1.554 -0.702,0.684 -0.904,1.761 -1.551,2.497 -0.367,0.419 -1.08,0.441 -1.417,0.884 -1.866,2.453 -3.654,4.989 -5.115,7.703 -1.131,2.102 -2.074,4.341 -2.617,6.665 -0.383,1.642 -0.212,3.372 -0.119,5.055 0.029,0.52 0.175,1.066 0.483,1.486 0.535,0.731 1.102,1.627 1.976,1.869 m -55.51,-1.338 c 0,0 0,0 0,0 0.704,-3.186 0.688,-6.623 2.112,-9.56 0.558,-1.148 2.152,-1.472 3.39,-1.782 0.409,-0.102 0.656,0.721 1.074,0.665 2.099,-0.279 4.145,-0.921 6.143,-1.627 0.177,-0.063 -0.21,-0.361 -0.392,-0.405 -3.066,-0.725 -6.675,-0.082 -9.262,-1.88 -1.229,-0.854 -0.119,-3.007 0.101,-4.486 0.396,-2.66 1.29,-5.225 1.74,-7.876 0.171,-1.006 0.282,-2.052 0.115,-3.059 -0.155,-0.934 -0.474,-1.892 -1.059,-2.636 -0.604,-0.768 -1.45,-1.4 -2.372,-1.723 -0.495,-0.174 -1.079,0.091 -1.533,0.353 -0.375,0.216 -0.936,0.587 -0.82,1.003 0.23,0.826 1.438,1.143 1.65,1.974 0.414,1.621 0.333,3.357 0.135,5.019 -0.372,3.131 -1.102,6.213 -1.835,9.28 -0.26,1.088 -0.279,2.439 -1.137,3.157 -0.649,0.544 -1.713,0.107 -2.54,-0.078 -0.384,-0.086 -0.569,-0.598 -0.948,-0.704 -0.65,-0.183 -1.35,-0.199 -2.022,-0.132 -0.518,0.052 -1.047,0.2 -1.484,0.481 -0.362,0.233 -0.752,0.575 -0.817,1 -0.047,0.302 0.266,0.623 0.551,0.731 2.004,0.754 4.971,0.019 6.165,1.796 1.978,2.943 1.07,7.032 2.059,10.438 m -21.186,0.06 c 0,0 0,0 0,0 -0.205,-0.349 -0.718,-0.654 -0.616,-1.046 0.622,-2.393 1.904,-4.569 2.687,-6.914 0.118,-0.354 0.149,-0.78 -0.007,-1.119 -0.481,-1.047 -1.021,-2.118 -1.849,-2.92 -0.376,-0.364 -1.137,-0.697 -1.532,-0.353 -0.357,0.31 0.434,0.903 0.363,1.371 -0.423,2.783 -1.098,5.525 -1.826,8.245 -0.162,0.606 -0.926,1.067 -0.833,1.688 0.094,0.623 0.69,1.201 1.295,1.377 m -48.708,-0.128 c 0,0 0,0 0,0 1.902,-0.901 3.942,-1.555 5.707,-2.702 1.116,-0.724 2.011,-1.769 2.812,-2.831 1.34,-1.776 2.929,-3.507 3.577,-5.636 0.59,-1.939 0.349,-4.086 -0.011,-6.08 -0.111,-0.615 -0.727,-1.144 -1.325,-1.326 -0.974,-0.294 -2.048,-0.163 -3.052,-10e-4 -0.386,0.063 -0.604,0.777 -0.975,0.652 -0.812,-0.275 -1.18,-1.325 -1.973,-1.65 -0.643,-0.264 -1.419,-0.212 -2.086,-0.016 -2.269,0.665 -4.662,1.23 -6.61,2.569 -1.42,0.976 -2.252,2.633 -3.122,4.12 -1.04,1.778 -1.993,3.643 -2.574,5.619 -0.29,0.987 -0.317,2.112 0.015,3.085 0.348,1.023 1.164,1.84 1.925,2.607 0.689,0.695 1.414,1.53 2.372,1.729 m -115.708,-0.117 c 0,0 0,0 0,0 2.394,-0.739 4.847,-1.307 7.182,-2.217 1.496,-0.582 3.047,-1.192 4.264,-2.24 1.161,-0.999 2.12,-2.307 2.678,-3.734 0.375,-0.956 0.321,-2.109 -0.011,-3.08 -0.255,-0.749 -0.899,-1.423 -1.63,-1.725 -4.375,-1.81 -9.028,-2.871 -13.466,-4.52 -0.289,-0.108 -0.624,-0.399 -0.596,-0.705 0.066,-0.728 0.333,-1.5 0.842,-2.024 1.424,-1.463 3.12,-2.647 4.814,-3.787 1.464,-0.986 2.93,-2.094 4.63,-2.57 0.69,-0.192 1.324,0.585 2.029,0.709 0.683,0.119 1.434,0.261 2.08,0.009 0.904,-0.352 1.742,-0.966 2.339,-1.73 0.259,-0.332 0.259,-0.931 0,-1.262 -0.597,-0.762 -1.369,-1.716 -2.337,-1.725 -2.075,-0.018 -4.108,0.805 -6.004,1.649 -3.052,1.36 -5.929,3.104 -8.736,4.918 -0.817,0.529 -1.545,1.241 -2.065,2.064 -0.722,1.139 -1.786,2.383 -1.594,3.718 0.222,1.536 1.299,3.099 2.679,3.809 4.19,2.156 8.995,2.826 13.41,4.471 0.286,0.106 0.706,0.467 0.551,0.73 -0.643,1.098 -1.602,2.009 -2.611,2.784 -0.95,0.73 -2.017,1.394 -3.183,1.669 -5.22,1.232 -10.65,1.471 -15.842,2.819 -0.404,0.105 0.115,0.854 0.338,1.207 0.233,0.367 0.546,0.795 0.975,0.869 1.331,0.231 2.712,0.175 4.052,10e-4 0.387,-0.05 0.583,-0.651 0.974,-0.651 0.391,0 0.586,0.602 0.974,0.651 m 237.486,-1.329 c 0,0 0,0 0,0 1.444,-1.449 3.009,-2.787 4.333,-4.346 0.476,-0.561 0.739,-1.278 1.02,-1.958 2.563,-6.206 5.522,-12.278 7.509,-18.691 0.186,-0.601 -0.684,-1.221 -1.295,-1.37 -0.609,-0.149 -1.488,0.063 -1.776,0.621 -1.537,2.976 -2.185,6.335 -3.425,9.447 -1.173,2.943 -2.459,5.841 -3.81,8.705 -0.419,0.889 -0.868,1.784 -1.494,2.541 -0.729,0.884 -1.443,1.959 -2.527,2.328 -0.439,0.15 -0.449,-0.842 -0.479,-1.304 -0.131,-1.992 -0.285,-4.013 -0.002,-5.99 0.34,-2.372 1.394,-4.593 1.855,-6.945 0.199,-1.017 0.56,-2.171 0.113,-3.106 -0.606,-1.269 -1.9,-2.092 -3.009,-2.956 -0.213,-0.166 -0.708,-0.273 -0.81,-0.023 -0.258,0.633 -0.168,1.384 -0.015,2.05 0.089,0.383 0.597,0.569 0.704,0.948 0.183,0.649 0.255,1.356 0.133,2.019 -0.496,2.706 -1.676,5.279 -1.971,8.013 -0.322,2.99 -0.286,6.043 0.135,9.02 0.087,0.619 0.752,1.076 1.325,1.325 0.619,0.27 1.349,0.196 2.022,0.133 m 196.456,-1.464 c 0,0 0,0 0,0 0.283,-0.338 0.768,-0.58 0.849,-1.013 0.058,-0.31 -0.645,-0.511 -0.512,-0.797 0.314,-0.674 1.281,-0.881 1.604,-1.551 0.244,-0.507 0.099,-1.143 -0.043,-1.687 -0.098,-0.377 -0.639,-0.582 -0.649,-0.972 -0.011,-0.389 0.517,-0.622 0.597,-1.003 0.032,-0.155 -0.208,-0.479 -0.312,-0.36 -1.574,1.81 -2.782,3.918 -4.355,5.728 -0.136,0.157 -0.463,0.133 -0.622,0 -1.355,-1.128 -2.725,-2.282 -3.798,-3.681 -1.074,-1.402 -2.274,-2.89 -2.573,-4.63 -0.625,-3.631 -0.229,-7.368 -0.123,-11.051 0.015,-0.52 0.208,-1.042 0.482,-1.484 0.23,-0.371 0.587,-0.675 0.977,-0.871 0.309,-0.155 0.683,-0.128 1.029,-0.133 2.664,-0.039 5.336,-0.197 7.993,0 1.045,0.078 1.997,0.973 3.033,0.82 0.463,-0.069 0.476,-0.868 0.439,-1.335 -0.047,-0.607 -0.09,-1.534 -0.676,-1.696 -3.988,-1.106 -8.484,-0.224 -12.271,-1.894 -1.059,-0.468 -0.119,-2.337 0.11,-3.472 0.747,-3.7 1.563,-7.407 2.805,-10.971 0.229,-0.659 0.829,-1.342 1.519,-1.437 1.049,-0.144 2.027,0.963 3.074,0.805 0.466,-0.071 0.409,-0.87 0.454,-1.339 0.065,-0.673 0.138,-1.403 -0.132,-2.023 -0.249,-0.572 -0.713,-1.197 -1.325,-1.325 -1.648,-0.342 -3.485,-0.618 -5.05,10e-4 -1.013,0.4 -1.324,1.744 -1.817,2.715 -0.424,0.834 -0.693,1.744 -0.911,2.653 -1.25,5.213 -1.925,10.572 -3.491,15.7 -0.171,0.562 -0.991,0.666 -1.556,0.828 -3.65,1.047 -7.459,1.538 -11.045,2.786 -0.723,0.252 -1.253,0.954 -1.626,1.623 -0.176,0.315 -0.072,0.77 0.121,1.074 0.336,0.532 0.751,1.21 1.375,1.293 0.655,0.087 1.145,-0.684 1.777,-0.875 2.35,-0.71 4.728,-1.337 7.135,-1.816 0.815,-0.162 2.162,-0.862 2.492,-0.099 1.634,3.791 1.49,8.137 2.679,12.09 0.737,2.451 1.349,5.146 3.075,7.035 1.433,1.569 3.75,2.066 5.788,2.666 0.384,0.113 0.6,-0.663 1.001,-0.665 0.71,-0.005 1.329,0.542 2.032,0.645 m -48.034,0.162 c 0,0 0,0 0,0 1.24,-0.56 2.556,-0.975 3.719,-1.679 1.075,-0.652 2.072,-1.453 2.943,-2.359 1.114,-1.158 1.378,-3.97 2.975,-3.793 1.561,0.173 1.004,3.012 1.859,4.329 0.629,0.968 1.406,2.041 2.507,2.389 1.614,0.511 3.448,0.464 5.08,0.011 1.569,-0.436 2.907,-1.525 4.151,-2.575 0.181,-0.153 -0.5,-0.36 -0.413,-0.581 0.244,-0.621 1.537,-0.955 1.255,-1.559 -0.288,-0.619 -1.371,-0.249 -2.043,-0.131 -0.705,0.124 -1.275,0.7 -1.978,0.836 -0.99,0.192 -2.017,0.211 -3.023,0.133 -0.518,-0.041 -1.041,-0.209 -1.484,-0.483 -0.37,-0.229 -0.831,-0.541 -0.87,-0.976 -0.305,-3.326 -0.492,-6.699 -0.135,-10.02 0.221,-2.063 1.444,-3.909 1.849,-5.945 0.103,-0.517 -0.104,-1.08 -0.36,-1.541 -0.211,-0.379 -0.551,-0.773 -0.976,-0.862 -0.504,-0.106 -1.085,0.044 -1.507,0.339 -0.477,0.335 -0.464,1.229 -1.013,1.425 -2.856,1.019 -5.941,1.246 -8.852,2.095 -0.606,0.177 -1.15,0.553 -1.629,0.963 -1.013,0.865 -2.074,1.729 -2.814,2.836 -1.193,1.783 -2.07,3.766 -2.92,5.736 -0.681,1.58 -1.233,3.22 -1.66,4.887 -0.17,0.665 -0.186,1.374 -0.116,2.057 0.053,0.518 0.2,1.048 0.482,1.486 0.333,0.518 0.814,0.939 1.312,1.303 0.828,0.603 1.707,1.151 2.639,1.578 M 396.5,888.843 c 0,0 0,0 0,0 -0.451,-0.439 -1.147,-0.722 -1.351,-1.317 -0.327,-0.954 -0.339,-2.033 -0.135,-3.02 0.34,-1.645 0.939,-3.253 1.737,-4.731 0.778,-1.443 1.782,-2.782 2.941,-3.941 0.888,-0.888 2.06,-1.439 3.116,-2.117 0.862,-0.554 1.649,-1.31 2.638,-1.579 0.991,-0.27 2.133,-0.375 3.082,0.019 0.442,0.184 0.519,0.959 0.328,1.398 -1.597,3.667 -3.433,7.247 -5.568,10.629 -0.78,1.235 -1.965,2.178 -3.098,3.101 -0.794,0.646 -1.695,1.174 -2.638,1.573 m 174.022,-2.008 c 0,0 0,0 0,0 -1.367,0 -2.772,0.325 -4.1,10e-4 -0.607,-0.148 -1.144,-0.727 -1.325,-1.325 -0.298,-0.982 -0.335,-2.106 -0.011,-3.08 0.557,-1.676 1.531,-3.204 2.573,-4.63 0.756,-1.033 1.598,-2.135 2.763,-2.668 0.925,-0.423 2.074,-0.273 3.051,0.01 0.33,0.096 0.535,0.691 0.339,0.973 -0.679,0.977 -2.148,1.304 -2.663,2.376 -0.202,0.42 0.927,0.535 1.354,0.349 1.453,-0.632 2.499,-2 3.942,-2.654 0.286,-0.13 0.497,0.613 0.793,0.509 0.852,-0.301 1.349,-1.841 2.209,-1.567 0.765,0.243 0.628,1.628 0.352,2.382 -0.513,1.4 -1.675,2.468 -2.566,3.664 -0.754,1.012 -1.402,2.141 -2.366,2.955 m 326.801,0.613 c 0,0 0,0 0,0 4.133,-0.789 8.322,-1.324 12.398,-2.367 1.769,-0.453 3.426,-1.283 5.059,-2.101 0.302,-0.151 0.616,-0.431 0.664,-0.765 0.073,-0.509 -0.079,-1.061 -0.339,-1.505 -0.226,-0.387 -0.596,-0.92 -1.039,-0.853 -2.316,0.353 -4.458,1.458 -6.729,2.037 -2.723,0.695 -5.452,1.433 -8.241,1.782 -1.672,0.209 -3.397,0.189 -5.054,-0.119 -1.469,-0.273 -4.057,-0.109 -4.188,-1.597 -0.193,-2.19 1.92,-4.087 3.559,-5.552 1.464,-1.309 3.709,-1.375 5.368,-2.426 2.866,-1.816 5.61,-3.854 8.13,-6.127 0.752,-0.678 1.211,-1.658 1.554,-2.611 0.232,-0.644 0.188,-1.369 0.121,-2.05 -0.046,-0.472 -0.013,-1.176 -0.455,-1.347 -0.959,-0.37 -2.107,-0.342 -3.082,-0.019 -1.676,0.555 -3.285,1.43 -4.63,2.573 -3.268,2.778 -6.386,5.777 -9.101,9.099 -1.878,2.297 -3.466,4.884 -4.577,7.636 -0.466,1.154 -0.356,2.536 -0.016,3.733 0.145,0.51 0.828,0.699 1.327,0.882 1.957,0.72 3.938,1.432 5.989,1.808 m -68.906,0.108 c 0,0 0,0 0,0 -0.459,-0.148 -1.143,-0.022 -1.376,-0.445 -0.337,-0.61 -0.241,-1.429 -0.022,-2.091 0.979,-2.951 2.117,-5.87 3.573,-8.618 0.467,-0.882 1.326,-1.507 2.116,-2.116 0.581,-0.449 1.282,-0.72 1.951,-1.021 1.214,-0.545 2.412,-1.155 3.692,-1.515 0.195,-0.055 0.363,0.192 0.51,0.331 0.318,0.299 0.782,0.546 0.875,0.971 0.22,1.004 0.451,2.153 0.011,3.081 -1.463,3.086 -3.378,5.978 -5.554,8.611 -0.985,1.192 -2.391,2.009 -3.781,2.686 m -36.685,-2.306 c 0,0 0,0 0,0 1.048,-3.017 2.617,-5.901 3.144,-9.051 0.498,-2.978 0.221,-6.056 -0.117,-9.056 -0.273,-2.431 -1.031,-4.787 -1.706,-7.139 -0.275,-0.958 -0.666,-1.887 -1.135,-2.766 -0.21,-0.393 -0.683,-0.607 -0.879,-1.007 -0.152,-0.309 -0.165,-0.685 -0.118,-1.026 0.071,-0.512 0.184,-1.046 0.465,-1.48 0.679,-1.054 1.191,-2.496 2.371,-2.918 1.776,-0.635 3.872,-0.557 5.659,0.046 1.305,0.441 2.059,1.839 2.974,2.867 0.279,0.313 0.278,0.822 0.574,1.119 0.661,0.664 1.67,0.957 2.236,1.703 1.061,1.399 2.001,2.942 2.552,4.609 0.322,0.975 0.313,2.106 -0.011,3.08 -0.242,0.728 -0.85,1.42 -1.572,1.681 -2.651,0.956 -5.891,0.314 -8.247,1.861 -0.971,0.638 -0.203,2.365 0.106,3.486 0.271,0.987 0.901,1.867 1.577,2.636 1.897,2.158 3.937,4.198 6.095,6.095 0.769,0.675 1.673,1.228 2.636,1.577 0.643,0.233 1.369,0.188 2.05,0.121 0.472,-0.046 1.121,-0.039 1.346,-0.456 0.325,-0.601 0.106,-1.374 0.008,-2.051 -0.029,-0.201 -0.201,-0.375 -0.373,-0.484 -1.518,-0.96 -3.315,-1.514 -4.661,-2.703 -1.429,-1.265 -4.121,-2.714 -3.511,-4.523 0.677,-2.01 3.978,-1.501 5.866,-2.469 0.466,-0.239 0.808,-0.682 1.114,-1.107 0.597,-0.831 1.373,-1.633 1.577,-2.636 0.34,-1.668 0.496,-3.479 0,-5.108 -0.732,-2.402 -2.186,-4.538 -3.576,-6.63 -0.309,-0.465 -1.022,-0.497 -1.42,-0.89 -1.867,-1.841 -2.906,-4.801 -5.34,-5.778 -2.8,-1.124 -6.109,-0.663 -9.052,0 -1.247,0.281 -1.976,1.652 -2.759,2.662 -1.058,1.364 -2.161,2.774 -2.722,4.408 -1.028,2.994 -1.691,6.136 -1.979,9.288 -0.336,3.67 -0.365,7.402 0.116,11.056 0.436,3.303 1.416,6.539 2.612,9.649 0.286,0.742 0.976,1.394 1.732,1.64 m -315.942,0.127 c 0,0 0,0 0,0 -0.456,-0.148 -1.046,-0.09 -1.369,-0.445 -0.238,-0.261 -0.173,-0.75 -0.005,-1.061 0.708,-1.31 1.621,-2.505 2.557,-3.662 0.622,-0.77 1.288,-1.534 2.101,-2.099 1.451,-1.007 2.948,-2.037 4.63,-2.573 0.769,-0.245 1.826,-0.236 2.396,0.334 0.491,0.491 0.238,1.423 0.02,2.082 -0.321,0.972 -0.95,1.826 -1.577,2.636 -0.597,0.769 -1.274,1.499 -2.066,2.065 -0.889,0.636 -2.118,0.752 -2.918,1.497 -0.221,0.205 0.437,0.46 0.498,0.756 0.029,0.14 -0.133,0.314 -0.275,0.33 m 312.679,-6.195 c 0,0 0,0 0,0 -0.141,-0.129 -0.379,-0.2 -0.424,-0.385 -0.693,-2.899 -1.385,-5.809 -1.765,-8.765 -0.173,-1.341 -0.116,-2.723 0.117,-4.055 0.363,-2.083 0.943,-4.132 1.66,-6.121 0.063,-0.176 0.368,0.208 0.404,0.392 0.702,3.58 1.383,7.172 1.791,10.798 0.151,1.343 0.17,2.733 -0.119,4.053 m -381.322,4.269 c 0,0 0,0 0,0 -0.463,-0.099 -1.128,0.097 -1.388,-0.298 -0.372,-0.566 -0.209,-1.353 -0.14,-2.027 0.049,-0.48 0.03,-1.519 0.486,-1.362 1.036,0.358 2.021,1.276 2.319,2.33 m 215.006,-2.92 c 0,0 0,0 0,0 0.03,-0.535 0.461,-1.217 0.091,-1.604 -0.88,-0.92 -2.135,-1.471 -3.361,-1.813 -0.99,-0.277 -2.101,-0.286 -3.084,0.013 -0.596,0.181 -1.113,0.736 -1.316,1.324 -0.168,0.487 0.082,1.061 0.339,1.507 0.216,0.374 0.571,0.813 1.002,0.82 0.715,0.012 1.287,-0.778 2.001,-0.768 0.713,0.009 1.267,0.735 1.974,0.821 m -77.904,-0.008 c 0,0 0,0 0,0 -0.471,-0.104 -1.264,0.146 -1.413,-0.313 -0.423,-1.297 -0.318,-2.76 -0.025,-4.092 0.581,-2.633 1.587,-5.163 2.614,-7.657 0.298,-0.722 0.729,-1.434 1.335,-1.927 1.328,-1.081 2.663,-2.506 4.363,-2.711 1.669,-0.202 3.366,0.699 4.781,1.606 1.454,0.932 2.8,2.206 3.574,3.75 0.277,0.552 -0.415,1.219 -0.873,1.633 -2.446,2.211 -5.011,4.308 -7.742,6.155 m 153.343,0.501 c 0,0 0,0 0,0 -0.12,-0.436 -0.351,-0.857 -0.359,-1.31 -0.002,-0.145 0.255,-0.404 0.332,-0.281 0.245,0.387 0.325,0.875 0.332,1.332 m -38.009,0.015 c 0,0 0,0 0,0 -0.106,-0.507 -0.071,-1.066 -0.317,-1.522 -0.209,-0.385 -0.555,-0.768 -0.98,-0.875 -0.978,-0.246 -2.017,-0.207 -3.022,-0.132 -0.473,0.035 -1.184,0.011 -1.347,0.456 -0.273,0.749 -0.375,1.971 0.315,2.371 1.162,0.672 2.684,0.216 4.024,0.141 m 200.3,-651.289 c 0,0 0,0 0,0 2.796,-1.469 5.642,-2.85 8.389,-4.408 1.095,-0.621 2.3,-1.17 3.123,-2.121 1.268,-1.467 2.176,-3.227 3.013,-4.975 1.023,-2.136 2.302,-4.277 2.545,-6.632 0.618,-6.008 0.341,-12.089 10e-4,-18.12 -0.083,-1.491 -0.964,-2.835 -1.263,-4.298 -0.905,-4.431 -0.655,-9.168 -2.345,-13.363 -0.505,-1.252 -2.38,-1.366 -3.701,-1.644 -1.341,-0.281 -2.841,-0.511 -4.112,0.004 -3.43,1.389 -6.666,3.315 -9.612,5.554 -1.373,1.044 -2.182,2.679 -3.123,4.124 -0.963,1.48 -1.91,2.994 -2.573,4.63 -0.258,0.636 -0.138,1.368 -0.136,2.054 0.002,0.676 -0.042,1.374 0.147,2.024 0.094,0.322 0.388,0.565 0.661,0.759 0.836,0.592 1.664,1.255 2.636,1.579 0.669,0.223 1.44,0.211 2.114,0.005 3.272,-0.995 6.537,-2.089 9.617,-3.575 1.496,-0.721 2.749,-1.88 3.989,-2.984 0.728,-0.648 1.343,-3.053 1.879,-2.239 1.795,2.723 2.398,6.136 2.822,9.37 0.566,4.315 0.497,8.72 0.119,13.055 -0.18,2.063 -1.006,4.032 -1.779,5.954 -0.8,1.99 -1.465,4.158 -2.919,5.736 -1.737,1.886 -4.093,3.129 -6.357,4.333 -2.029,1.078 -4.194,1.967 -6.437,2.469 -1.319,0.295 -2.754,0.253 -4.053,-0.12 -2.311,-0.665 -4.502,-1.745 -6.588,-2.942 -0.721,-0.415 -0.933,-1.517 -1.707,-1.821 -0.628,-0.246 -1.56,-0.151 -1.989,0.369 -0.435,0.528 -0.339,1.455 -0.008,2.054 0.621,1.123 1.596,2.073 2.674,2.767 1.732,1.115 3.585,2.246 5.618,2.573 M 591.829,207.55 c 0,0 0,0 0,0 0.008,-0.691 0.158,-1.394 0.024,-2.072 -0.138,-0.701 -0.812,-1.264 -0.822,-1.978 -0.01,-0.715 0.792,-1.288 0.767,-2.003 -0.012,-0.338 -0.646,-0.281 -0.858,-0.546 -0.653,-0.818 -0.961,-1.895 -1.691,-2.645 -0.148,-0.152 -0.433,0.589 -0.504,0.389 -1.064,-2.982 -2.002,-6.026 -2.615,-9.133 -0.265,-1.349 -0.268,-2.776 10e-4,-4.123 0.373,-1.868 0.348,-4.282 1.897,-5.388 1.501,-1.072 3.73,-0.309 5.532,0.081 2.748,0.595 5.219,2.138 7.942,2.837 0.445,0.114 1.1,-0.049 1.298,-0.463 0.168,-0.352 -0.578,-0.615 -0.598,-1.004 -0.016,-0.312 0.763,-0.61 0.507,-0.79 -2.209,-1.548 -4.634,-2.799 -7.12,-3.846 -1.931,-0.813 -3.977,-1.404 -6.05,-1.701 -0.404,-0.058 -0.618,0.586 -1.013,0.688 -0.866,0.221 -1.99,-0.325 -2.67,0.255 -1.299,1.107 -2.408,2.66 -2.718,4.338 -0.669,3.621 -0.689,7.408 -0.124,11.048 0.629,4.05 2.264,7.885 3.664,11.737 0.506,1.393 1.268,2.685 2.036,3.953 0.175,0.289 0.427,0.627 0.762,0.666 m -31.738,-1.106 c 0,0 0,0 0,0 2.393,-0.738 4.861,-1.265 7.178,-2.213 3.071,-1.255 6.283,-2.389 8.94,-4.376 0.5,-0.375 -0.396,-1.257 -0.876,-1.658 -0.405,-0.338 -1.034,-0.504 -1.542,-0.361 -4.718,1.326 -9.107,3.825 -13.927,4.709 -0.969,0.178 -2.25,-0.74 -2.409,-1.712 -0.68,-4.164 -0.167,-8.443 0.061,-12.655 0.012,-0.216 0.431,-0.235 0.631,-0.154 0.948,0.386 1.676,1.706 2.678,1.499 1.258,-0.26 1.991,-1.646 2.813,-2.633 0.655,-0.787 1.149,-1.706 1.577,-2.636 0.149,-0.323 0.125,-0.704 0.124,-1.06 -0.003,-1.008 0.186,-2.065 -0.135,-3.02 -0.199,-0.592 -0.744,-1.097 -1.325,-1.325 -0.646,-0.253 -1.435,-0.265 -2.08,-0.011 -1.696,0.667 -3.443,1.434 -4.755,2.699 -1.001,0.966 -1.366,2.43 -1.898,3.715 -0.657,1.59 -1.484,3.176 -1.661,4.887 -0.381,3.686 -0.652,7.469 0.006,11.115 0.271,1.506 1.59,2.65 2.672,3.731 0.723,0.722 1.675,1.215 2.633,1.571 m 62.057,-0.984 c 0,0 0,0 0,0 3.23,-1.863 6.532,-3.606 9.69,-5.587 1.412,-0.886 2.739,-1.91 4,-3 0.967,-0.836 2.129,-1.597 2.661,-2.759 0.424,-0.924 0.177,-2.049 0,-3.05 -0.059,-0.335 -0.358,-0.641 -0.675,-0.767 -5.743,-2.297 -11.651,-4.169 -17.397,-6.46 -0.295,-0.118 -0.58,-0.409 -0.62,-0.725 -0.064,-0.51 0.078,-1.062 0.339,-1.505 0.312,-0.532 0.805,-0.952 1.312,-1.304 2.733,-1.899 5.646,-3.531 8.38,-5.43 0.506,-0.352 0.981,-0.784 1.312,-1.303 0.279,-0.437 0.471,-0.964 0.466,-1.482 -0.004,-0.47 -0.052,-1.496 -0.49,-1.323 -2.761,1.088 -5.169,2.924 -7.662,4.534 -1.402,0.906 -2.725,1.934 -4.006,3.004 -0.758,0.633 -1.49,1.315 -2.095,2.095 -0.626,0.808 -1.232,1.669 -1.571,2.634 -0.151,0.43 -0.013,0.94 0.169,1.358 0.385,0.886 0.624,2.071 1.498,2.481 4.932,2.312 10.316,3.508 15.408,5.444 0.555,0.211 1.74,0.442 1.487,0.979 -0.501,1.063 -1.992,1.259 -2.896,2.009 -0.943,0.783 -1.601,1.901 -2.626,2.573 -1.856,1.217 -3.921,2.08 -5.925,3.032 -1.207,0.573 -2.375,1.372 -3.7,1.541 -0.921,0.117 -1.818,-1.047 -2.69,-0.726 -0.902,0.332 -1.589,1.381 -1.691,2.337 -0.067,0.628 0.676,1.261 1.296,1.379 m -90.705,-0.132 c 0,0 0,0 0,0 1.232,-0.563 2.514,-1.027 3.696,-1.689 0.343,-0.193 0.609,-0.517 0.824,-0.846 1.051,-1.613 2.105,-3.235 2.96,-4.96 1.28,-2.584 1.645,-5.678 3.433,-7.941 0.667,-0.844 0.402,2.142 0.303,3.213 -0.066,0.715 -0.74,1.288 -0.784,2.004 -0.024,0.388 0.727,0.634 0.598,1 -0.395,1.124 -1.856,1.782 -1.993,2.965 -0.076,0.655 0.876,1.504 1.501,1.291 1.062,-0.363 1.162,-2.114 2.195,-2.554 0.656,-0.279 1.288,0.701 1.998,0.766 0.458,0.042 1.102,-0.047 1.3,-0.462 0.169,-0.353 -0.599,-0.616 -0.599,-1.006 -10e-4,-0.389 0.622,-0.612 0.598,-1 -0.044,-0.716 -0.731,-1.288 -0.784,-2.004 -0.173,-2.346 -0.14,-4.719 0.114,-7.059 0.601,-5.539 1.365,-11.069 2.445,-16.534 0.828,-4.191 2.823,-8.143 3.271,-12.392 0.103,-0.971 -0.862,-1.899 -1.714,-2.376 -0.443,-0.248 -1.205,0.167 -1.38,0.644 -2.423,6.614 -3.991,13.516 -6.253,20.188 -0.56,1.651 -0.606,4.043 -2.203,4.743 -1.151,0.506 -1.561,-2.211 -2.769,-2.561 -1.937,-0.563 -4.162,-0.707 -6.052,0 -1.641,0.612 -2.808,2.198 -3.762,3.667 -1.53,2.354 -2.991,4.879 -3.578,7.625 -0.634,2.971 -0.577,6.131 0.004,9.113 0.348,1.788 1.523,3.36 2.696,4.753 0.652,0.774 1.658,1.207 2.61,1.549 M 501.83,205.55 c 0,0 0,0 0,0 0.102,-0.7 0.088,-1.427 0.305,-2.101 0.216,-0.669 0.745,-1.205 0.975,-1.87 0.684,-1.974 1.578,-3.935 1.759,-6.018 0.408,-4.687 0.635,-9.454 -0.007,-14.115 -0.241,-1.749 -1.559,-3.185 -2.573,-4.63 -0.627,-0.892 -1.43,-1.671 -2.307,-2.318 -0.419,-0.31 -0.968,-0.43 -1.486,-0.482 -0.672,-0.067 -1.439,-0.208 -2.022,0.133 -1.103,0.644 -1.937,1.683 -2.759,2.661 -0.774,0.921 -1.442,1.939 -2.001,3.004 -1.268,2.414 -2.194,4.999 -3.468,7.41 -0.147,0.278 -0.435,0.597 -0.748,0.574 -0.528,-0.039 -1.246,-1.236 -1.407,-0.733 -1.49,4.659 -2.1,9.559 -2.958,14.375 -0.122,0.685 -0.307,1.475 0.024,2.088 0.225,0.414 0.875,0.492 1.343,0.44 0.647,-0.071 1.379,-0.277 1.786,-0.784 0.936,-1.164 1.512,-2.591 2.048,-3.985 1.537,-4.001 2.562,-8.19 4.158,-12.168 0.869,-2.165 1.93,-4.271 3.22,-6.215 0.665,-1.003 1.432,-2.889 2.579,-2.526 1.553,0.492 2.266,2.556 2.571,4.156 0.628,3.292 0.135,6.703 0.137,10.054 0,0.689 0.044,1.396 -0.13,2.061 -0.785,2.997 -1.991,5.874 -2.734,8.881 -0.167,0.675 -0.307,1.473 0.022,2.086 0.225,0.417 0.873,0.452 1.347,0.455 m -48.707,-1.291 c 0,0 0,0 0,0 1.076,-0.741 2.306,-1.297 3.227,-2.222 0.939,-0.941 1.601,-2.132 2.263,-3.284 1.106,-1.926 2.127,-3.905 3.032,-5.933 1.907,-4.273 2.115,-9.624 5.398,-12.959 1.685,-1.713 0.429,4.805 0.268,7.202 -0.071,1.048 -1.027,1.954 -0.955,3.001 0.203,2.977 0.818,5.946 1.76,8.778 0.243,0.729 1.033,1.167 1.684,1.576 0.293,0.185 0.684,0.133 1.03,0.133 0.675,0 1.406,0.145 2.022,-0.133 0.565,-0.254 1.461,-0.761 1.273,-1.351 -0.403,-1.265 -1.892,-1.884 -2.65,-2.974 -0.198,-0.284 -0.132,-0.683 -0.134,-1.03 -0.043,-9.33 -0.292,-18.666 0,-27.993 0.033,-1.052 0.867,-1.958 0.97,-3.007 0.228,-2.321 0.048,-4.664 0.014,-6.996 -0.01,-0.677 0.125,-1.407 -0.148,-2.026 -0.25,-0.57 -0.716,-1.181 -1.324,-1.316 -0.613,-0.137 -1.388,0.131 -1.778,0.624 -0.666,0.843 -0.837,1.987 -1.108,3.026 -1.861,7.14 -3.247,14.403 -5.284,21.495 -1.075,3.739 -2.51,7.374 -4.039,10.951 -1.165,2.727 -2.43,5.434 -4.03,7.93 -0.69,1.078 -1.642,2.047 -2.762,2.667 -0.598,0.331 -1.425,0.274 -2.052,0 -0.741,-0.324 -1.307,-0.998 -1.762,-1.666 -0.788,-1.158 -1.382,-2.444 -1.919,-3.737 -0.659,-1.589 -1.493,-3.175 -1.661,-4.887 -0.393,-4.022 -0.315,-8.095 -0.003,-12.124 0.276,-3.561 0.945,-7.093 1.763,-10.571 0.432,-1.838 1.454,-3.495 1.97,-5.312 0.187,-0.659 0.193,-1.369 0.121,-2.05 -0.049,-0.461 -0.023,-1.214 -0.478,-1.304 -0.61,-0.122 -1.246,0.404 -1.647,0.88 -0.882,1.046 -1.67,2.234 -2.08,3.54 -1.218,3.881 -2.418,7.833 -2.764,11.887 -0.541,6.327 -0.364,12.719 0.12,19.052 0.102,1.333 0.939,2.518 1.619,3.669 1.28,2.167 2.608,4.332 4.239,6.249 0.344,0.404 0.98,0.488 1.511,0.508 m 76.046,-3.15 c 0,0 0,0 0,0 -0.565,0.019 -1.289,0.45 -1.695,0.056 -1.224,-1.188 -2.193,-2.713 -2.716,-4.337 -0.421,-1.306 -0.241,-2.764 -0.007,-4.115 0.357,-2.059 0.935,-4.098 1.763,-6.017 0.714,-1.655 1.81,-3.121 2.823,-4.612 0.189,-0.277 0.427,-0.615 0.759,-0.661 1.338,-0.184 2.824,-0.565 4.05,0 1.43,0.657 3.062,1.823 3.297,3.379 0.236,1.568 -1.531,2.784 -2.148,4.244 -0.886,2.1 -1.322,4.387 -2.354,6.419 m 130.509,3.359 c 0,0 0,0 0,0 0.945,-4.925 1.733,-9.882 2.835,-14.774 0.289,-1.281 0.083,-3.293 1.329,-3.71 3.024,-1.012 6.398,-0.29 9.567,0.065 1.965,0.221 3.852,0.94 5.698,1.648 0.431,0.165 0.612,1.132 1.027,0.93 0.799,-0.39 1.72,-1.311 1.535,-2.18 -0.2,-0.942 -1.42,-1.444 -2.355,-1.674 -5.407,-1.327 -12.325,0.807 -16.441,-2.942 -2.591,-2.36 1.403,-6.874 1.845,-10.351 0.213,-1.673 0.325,-3.385 0.115,-5.058 -0.094,-0.742 -0.474,-1.479 -1.005,-2.007 -0.366,-0.364 -0.963,-0.465 -1.48,-0.465 -0.46,-0.001 -1.112,0.043 -1.3,0.462 -0.161,0.358 0.601,0.591 0.652,0.98 0.218,1.659 0.354,3.36 0.134,5.019 -0.358,2.696 -1.385,5.266 -1.856,7.945 -0.199,1.137 0.953,3.104 -0.145,3.459 -6.127,1.984 -12.782,1.634 -19.119,2.778 -0.353,0.064 -0.568,0.475 -0.717,0.801 -0.142,0.313 -0.172,0.685 -0.117,1.024 0.075,0.467 0.024,1.371 0.495,1.329 1.76,-0.156 3.22,-1.651 4.979,-1.815 4.322,-0.401 8.707,-0.334 13.022,0.143 0.471,0.052 0.406,0.875 0.456,1.347 0.105,0.991 0.204,2.014 0.002,2.99 -0.421,2.032 -1.543,3.893 -1.854,5.945 -0.352,2.326 -0.211,4.707 -0.116,7.057 0.019,0.474 0.012,1.18 0.456,1.346 m 85.33,-1.177 c 0,0 0,0 0,0 0.573,-0.546 1.539,-0.867 1.72,-1.638 0.271,-1.154 -0.646,-2.343 -0.508,-3.52 0.357,-3.055 1.67,-5.953 1.972,-9.014 0.359,-3.645 0.447,-7.352 -10e-4,-10.987 -0.171,-1.398 -0.923,-2.728 -1.82,-3.814 -0.644,-0.781 -1.688,-1.136 -2.611,-1.554 -0.322,-0.146 -0.702,-0.134 -1.054,-0.108 -0.443,0.032 -0.903,0.086 -1.302,0.282 -0.942,0.462 -1.87,0.987 -2.67,1.665 -1.375,1.166 -2.663,2.445 -3.813,3.833 -1.324,1.597 -1.969,3.784 -3.582,5.088 -0.69,0.557 -1.789,0.122 -2.659,-0.045 -0.384,-0.074 -0.591,-0.728 -0.975,-0.652 -0.531,0.105 -1.414,0.585 -1.208,1.085 0.429,1.038 2.044,1.193 2.56,2.19 0.463,0.895 0.426,2.054 0.134,3.018 -0.636,2.105 -2.274,3.829 -2.847,5.952 -0.439,1.626 -0.21,3.369 -0.122,5.05 0.024,0.473 0.039,1.121 0.456,1.346 0.602,0.325 1.384,0.158 2.051,0.008 0.314,-0.07 0.624,-0.328 0.728,-0.632 1.626,-4.757 2.751,-9.676 4.416,-14.419 0.495,-1.408 1.119,-2.812 2.045,-3.983 1.553,-1.965 3.322,-3.791 5.306,-5.319 0.568,-0.437 1.475,-0.717 2.115,-0.393 0.865,0.439 1.457,1.411 1.729,2.342 0.378,1.298 0.292,2.711 0.137,4.054 -0.425,3.674 -1.464,7.261 -1.869,10.938 -0.258,2.339 -0.216,4.707 -0.115,7.058 0.022,0.52 0.152,1.083 0.482,1.484 m -29.778,0.697 c 0,0 0,0 0,0 -0.413,-0.552 -0.944,-1.033 -1.24,-1.656 -0.122,-0.259 0.282,-0.694 0.047,-0.858 -0.46,-0.319 -1.215,0.078 -1.659,-0.263 -0.77,-0.593 -1.558,-1.39 -1.729,-2.346 -0.47,-2.642 -0.328,-5.375 -0.123,-8.051 0.081,-1.05 0.825,-1.963 0.97,-3.007 0.182,-1.318 0.119,-2.667 -10e-4,-3.992 -0.042,-0.462 -0.028,-1.196 -0.479,-1.304 -0.555,-0.134 -1.235,0.322 -1.501,0.828 -1.179,2.249 -1.626,4.821 -2.672,7.136 -0.464,1.026 -1.037,2.042 -1.834,2.838 -1.93,1.925 -4.03,3.698 -6.273,5.247 -1.099,0.759 -2.389,1.223 -3.665,1.616 -0.54,0.165 -1.225,0.347 -1.693,0.031 -0.804,-0.543 -1.509,-1.397 -1.729,-2.342 -0.386,-1.66 -0.464,-3.472 -0.004,-5.113 0.759,-2.703 1.994,-5.307 3.578,-7.625 1.251,-1.83 2.872,-3.499 4.788,-4.615 0.533,-0.311 1.193,0.44 1.633,0.873 0.697,0.686 1.804,1.427 1.689,2.398 -0.161,1.367 -2.494,2.011 -2.37,3.382 0.081,0.889 1.888,0.457 2.681,0.044 0.86,-0.449 1.264,-1.492 1.729,-2.344 0.17,-0.313 0.152,-0.705 0.123,-1.06 -0.092,-1.166 -0.076,-2.379 -0.483,-3.476 -0.208,-0.562 -0.757,-0.969 -1.277,-1.267 -1.17,-0.67 -2.378,-1.747 -3.718,-1.594 -1.769,0.202 -3.337,1.398 -4.691,2.554 -1.305,1.116 -2.309,2.59 -3.107,4.111 -1.446,2.754 -2.842,5.596 -3.575,8.619 -0.48,1.981 -0.359,4.108 0.004,6.113 0.182,1.008 0.949,1.827 1.577,2.636 0.495,0.637 0.983,1.439 1.759,1.661 1.308,0.376 2.768,0.362 4.085,0.015 1.991,-0.525 3.909,-1.423 5.618,-2.573 1.492,-1.004 2.482,-2.611 3.839,-3.792 0.265,-0.231 0.785,-0.697 0.977,-0.402 1.208,1.858 1.651,4.125 2.709,6.072 0.298,0.548 0.792,0.992 1.316,1.331 0.437,0.283 0.965,0.463 1.485,0.483 m 101.326,-2.44 c 0,0 0,0 0,0 -0.271,-1.016 -0.742,-1.999 -0.814,-3.048 -0.206,-2.992 -0.05,-5.998 -0.014,-8.997 0.008,-0.677 -0.039,-1.375 0.147,-2.026 0.108,-0.378 0.623,-0.563 0.704,-0.948 0.208,-0.987 0.211,-2.017 0.133,-3.022 -0.041,-0.519 -0.201,-1.047 -0.483,-1.484 -0.232,-0.362 -0.574,-0.748 -0.999,-0.817 -0.296,-0.048 -0.614,0.258 -0.721,0.538 -0.703,1.848 -1.455,3.73 -1.651,5.698 -0.398,3.999 -0.225,8.039 -0.116,12.057 0.014,0.521 0.17,1.07 0.482,1.486 0.542,0.72 1.114,1.667 2.003,1.817 m -39.704,-2.104 c 0,0 0,0 0,0 1.462,-0.802 3.056,-1.399 4.386,-2.405 1.44,-1.089 2.71,-2.411 3.841,-3.818 1.886,-2.348 2.166,-7.403 5.178,-7.405 2.634,-0.002 1.594,5.047 2.78,7.399 0.183,0.363 0.816,0.629 1.15,0.399 0.801,-0.551 1.706,-1.393 1.707,-2.366 0.001,-1.133 -1.53,-1.824 -1.7,-2.945 -0.454,-2.982 -0.507,-6.056 -0.124,-9.047 0.905,-7.071 2.892,-13.967 3.972,-21.014 0.203,-1.325 0.228,-2.729 -0.135,-4.019 -0.173,-0.617 -0.783,-1.601 -1.371,-1.347 -1,0.432 -1.55,1.663 -1.812,2.722 -1.545,6.254 -2.08,12.725 -3.554,18.996 -0.326,1.386 -0.535,3.252 -1.82,3.865 -0.873,0.416 -1.332,-1.414 -2.104,-1.995 -0.817,-0.615 -1.612,-1.576 -2.634,-1.571 -1.681,0.008 -3.241,0.932 -4.781,1.606 -0.709,0.311 -1.361,0.776 -1.909,1.324 -1.486,1.486 -2.973,3.004 -4.154,4.742 -1.412,2.076 -2.983,4.19 -3.574,6.63 -0.634,2.618 -0.58,5.452 0.01,8.08 0.241,1.07 1.284,1.985 2.326,2.325 m 83.491,-1.338 c 0,0 0,0 0,0 0.433,-1.042 0.975,-2.045 1.297,-3.126 0.446,-1.496 0.71,-3.042 0.999,-4.576 0.581,-3.075 1.236,-6.142 1.609,-9.249 0.164,-1.364 0.231,-2.769 -10e-4,-4.123 -0.353,-2.061 -1.007,-4.068 -1.736,-6.027 -0.47,-1.263 -1.047,-2.511 -1.846,-3.597 -0.758,-1.031 -1.598,-2.133 -2.761,-2.666 -0.933,-0.428 -2.124,-0.386 -3.08,-0.011 -1.427,0.558 -2.826,1.445 -3.735,2.678 -2.084,2.828 -2.593,6.743 -5.056,9.248 -0.673,0.685 -1.334,-1.407 -2.143,-1.924 -0.133,-0.085 -0.343,0.203 -0.31,0.357 0.08,0.381 0.597,0.614 0.597,1.003 0,0.389 -0.607,0.612 -0.598,1 0.008,0.388 0.523,0.601 0.641,0.971 0.111,0.345 0.105,0.736 0.018,1.088 -0.82,3.317 -2.123,6.517 -2.73,9.879 -0.301,1.67 -0.397,3.447 0.027,5.09 0.117,0.453 0.901,0.326 1.368,0.313 0.201,-0.006 0.368,-0.198 0.482,-0.364 0.563,-0.829 1.187,-1.647 1.527,-2.589 1.159,-3.204 1.852,-6.56 2.948,-9.786 0.956,-2.815 1.97,-5.619 3.206,-8.323 0.635,-1.389 1.394,-2.751 2.386,-3.912 0.635,-0.744 1.436,-1.863 2.398,-1.689 1.264,0.228 1.991,1.646 2.813,2.632 0.655,0.787 1.486,1.616 1.577,2.636 0.448,5.018 0.594,10.111 0.005,15.115 -0.365,3.105 -2.127,5.896 -2.836,8.941 -0.107,0.458 -0.003,1.187 0.441,1.34 m -77.896,-1.993 c 0,0 0,0 0,0 -0.543,0.023 -1.24,0.45 -1.628,0.07 -0.92,-0.9 -1.887,-2.135 -1.795,-3.419 0.172,-2.378 1.591,-4.498 2.526,-6.691 0.343,-0.805 0.727,-1.62 1.299,-2.282 1.486,-1.72 3.104,-3.335 4.832,-4.812 0.777,-0.664 1.691,-1.177 2.635,-1.571 0.333,-0.14 0.796,-0.204 1.084,0.014 1.248,0.944 2.5,1.985 3.322,3.316 0.364,0.59 0.258,1.432 0.011,2.08 -0.63,1.649 -1.616,3.146 -2.573,4.63 -0.906,1.402 -1.933,2.726 -3.004,4.006 -0.635,0.76 -1.288,1.534 -2.101,2.099 m -211.641,-2.461 c 0,0 0,0 0,0 -0.462,-0.099 -1.145,0.109 -1.386,-0.297 -0.349,-0.59 -0.373,-1.476 -0.008,-2.057 0.831,-1.324 1.839,-2.899 3.356,-3.275 0.771,-0.19 0.618,1.605 0.357,2.355 m 309.716,-4.7 c 0,0 0,0 0,0 -1.025,0.043 -2.052,0.205 -3.075,0.13 -0.469,-0.034 -1.077,-0.061 -1.338,-0.454 -0.248,-0.374 -0.032,-0.928 0.151,-1.337 0.676,-1.52 1.384,-3.056 2.395,-4.377 1.176,-1.534 2.581,-2.904 4.099,-4.101 1.747,-1.378 3.546,-2.812 5.636,-3.577 1.277,-0.468 2.888,-0.634 4.082,0.019 0.709,0.389 0.554,1.623 0.337,2.402 -0.552,1.984 -1.45,3.89 -2.572,5.618 -0.789,1.215 -1.821,2.343 -3.072,3.074 m -63.267,-7.733 c 0,0 0,0 0,0 0.296,-0.328 0.713,-0.58 0.889,-0.986 0.14,-0.323 0.243,-0.804 -0.002,-1.057 -0.935,-0.966 -1.975,-2.042 -3.287,-2.337 -2.312,-0.52 -4.774,-0.41 -7.108,0 -0.952,0.168 -3.234,1.217 -2.376,1.665 2.978,1.557 6.584,1.373 9.833,2.233 0.567,0.151 1.004,0.652 1.575,0.786"
     id="path2505" />
</g>
</svg>
